<svg width="22" height="22" viewBox="0 0 22 22" fill="none" xmlns="http://www.w3.org/2000/svg">
<g id="inbox-out 1" clip-path="url(#clip0_1077_8052)">
<path id="Vector" d="M19.25 11H16.5C15.4889 11 14.6667 11.8223 14.6667 12.8333C14.6667 13.8444 13.8444 14.6667 12.8333 14.6667H9.16667C8.15558 14.6667 7.33333 13.8444 7.33333 12.8333C7.33333 11.8223 6.51108 11 5.5 11H2.75C1.23383 11 0 12.2338 0 13.75V17.4167C0 19.9439 2.05608 22 4.58333 22H17.4167C19.9439 22 22 19.9439 22 17.4167V13.75C22 12.2338 20.7662 11 19.25 11ZM20.1667 17.4167C20.1667 18.9328 18.9328 20.1667 17.4167 20.1667H4.58333C3.06717 20.1667 1.83333 18.9328 1.83333 17.4167V13.75C1.83333 13.244 2.244 12.8333 2.75 12.8333L5.5 12.8315V12.8333C5.5 14.8555 7.1445 16.5 9.16667 16.5H12.8333C14.8555 16.5 16.5 14.8555 16.5 12.8333H19.25C19.756 12.8333 20.1667 13.244 20.1667 13.75V17.4167ZM6.68525 4.85192C6.32683 4.4935 6.32683 3.91417 6.68525 3.55575L9.70383 0.537167C10.0577 0.183333 10.5224 0.0055 10.9872 0.00275L11 0L11.0128 0.00275C11.4785 0.0055 11.9423 0.183333 12.2962 0.537167L15.3148 3.55575C15.6732 3.91417 15.6732 4.4935 15.3148 4.85192C15.136 5.03067 14.9013 5.1205 14.6667 5.1205C14.432 5.1205 14.1973 5.03067 14.0186 4.85192L11.9167 2.75V9.16667C11.9167 9.67358 11.5069 10.0833 11 10.0833C10.4931 10.0833 10.0833 9.67358 10.0833 9.16667V2.75L7.98142 4.85192C7.623 5.21033 7.04367 5.21033 6.68525 4.85192Z" fill="#8D000E"/>
</g>
<defs>
<clipPath id="clip0_1077_8052">
<rect width="22" height="22" fill="white"/>
</clipPath>
</defs>
</svg>
