<svg width="40" height="40" viewBox="0 0 40 40" fill="none" xmlns="http://www.w3.org/2000/svg">
<rect width="40" height="40" rx="10" fill="#E95C40" fill-opacity="0.15"/>
<g clip-path="url(#clip0_1_125478)">
<path d="M23.3333 10.25C23.9215 10.4516 24.4567 10.7832 24.8992 11.22L26.2792 12.6017C26.7165 13.0436 27.0484 13.5786 27.25 14.1667H23.3333V10.25ZM21.6667 20H18.3333C18.1123 20 17.9004 20.0878 17.7441 20.2441C17.5878 20.4004 17.5 20.6123 17.5 20.8333C17.5 21.0543 17.5878 21.2663 17.7441 21.4226C17.9004 21.5789 18.1123 21.6667 18.3333 21.6667H21.6667C21.8877 21.6667 22.0996 21.5789 22.2559 21.4226C22.4122 21.2663 22.5 21.0543 22.5 20.8333C22.5 20.6123 22.4122 20.4004 22.2559 20.2441C22.0996 20.0878 21.8877 20 21.6667 20ZM23.3333 15.8333C22.8913 15.8333 22.4674 15.6577 22.1548 15.3452C21.8423 15.0326 21.6667 14.6087 21.6667 14.1667V10H16.6667C15.562 10.0013 14.503 10.4407 13.7218 11.2218C12.9407 12.003 12.5013 13.062 12.5 14.1667V25.8333C12.5013 26.938 12.9407 27.997 13.7218 28.7782C14.503 29.5593 15.562 29.9987 16.6667 30H23.3333C24.438 29.9987 25.497 29.5593 26.2782 28.7782C27.0593 27.997 27.4987 26.938 27.5 25.8333V15.8333H23.3333ZM23.3333 26.6667H16.6667C16.4457 26.6667 16.2337 26.5789 16.0774 26.4226C15.9211 26.2663 15.8333 26.0543 15.8333 25.8333C15.8333 25.6123 15.9211 25.4004 16.0774 25.2441C16.2337 25.0878 16.4457 25 16.6667 25H23.3333C23.5543 25 23.7663 25.0878 23.9226 25.2441C24.0789 25.4004 24.1667 25.6123 24.1667 25.8333C24.1667 26.0543 24.0789 26.2663 23.9226 26.4226C23.7663 26.5789 23.5543 26.6667 23.3333 26.6667ZM21.6667 23.3333H18.3333C17.6703 23.3333 17.0344 23.0699 16.5656 22.6011C16.0967 22.1323 15.8333 21.4964 15.8333 20.8333C15.8333 20.1703 16.0967 19.5344 16.5656 19.0656C17.0344 18.5967 17.6703 18.3333 18.3333 18.3333H21.6667C22.3297 18.3333 22.9656 18.5967 23.4344 19.0656C23.9033 19.5344 24.1667 20.1703 24.1667 20.8333C24.1667 21.4964 23.9033 22.1323 23.4344 22.6011C22.9656 23.0699 22.3297 23.3333 21.6667 23.3333Z" fill="#E95C40"/>
</g>
<defs>
<clipPath id="clip0_1_125478">
<rect width="20" height="20" fill="white" transform="translate(10 10)"/>
</clipPath>
</defs>
</svg>
