<svg width="25" height="22" viewBox="0 0 25 22" fill="none" xmlns="http://www.w3.org/2000/svg">
<path d="M14.269 1.35796L14.269 1.35798L14.275 1.35189C14.529 1.09357 14.9453 1.08404 15.2188 1.34979C15.3777 1.51063 15.448 1.73794 15.4017 1.97381L14.3395 7.09443L14.09 8.29753H15.3187H21.6409C23.3262 8.29753 24.4696 10.0239 23.8092 11.583C23.809 11.5834 23.8088 11.5839 23.8087 11.5843L20.1641 20.092C19.9617 20.5501 19.5121 20.8441 19.0225 20.8441H8.95176C8.27318 20.8441 7.71382 20.2848 7.71382 19.6062V8.42769C7.71382 8.09645 7.84584 7.78114 8.06993 7.55705L14.269 1.35796ZM3.47588 19.6062C3.47588 20.2848 2.91652 20.8441 2.23794 20.8441C1.55936 20.8441 1 20.2848 1 19.6062V10.6544C1 9.97586 1.55936 9.4165 2.23794 9.4165C2.91652 9.4165 3.47588 9.97586 3.47588 10.6544V19.6062Z" stroke="#8D000E" stroke-width="2"/>
</svg>
