<svg width="252" height="71" viewBox="0 0 252 71" fill="none" xmlns="http://www.w3.org/2000/svg">
<g id="Group">
<g id="Group_2">
<path id="Vector" d="M68.0247 51.5716V19.5301H88.7412V24.7178H73.8995V32.3467H87.8136V37.5344H73.8995V46.384H89.0504V51.5716H68.0247Z" fill="#404040"/>
<path id="Vector_2" d="M111.21 31.7364V19.5301H116.776V51.5716H111.21V48.2149C110.385 50.4527 107.603 52.0802 103.686 52.0802C100.388 52.0802 97.605 50.9613 95.3375 48.6218C93.07 46.2822 91.9363 43.4341 91.9363 39.9756C91.9363 36.5172 93.07 33.6691 95.3375 31.3295C97.605 28.99 100.388 27.8711 103.686 27.8711C107.603 27.8711 110.385 29.4986 111.21 31.7364ZM109.561 45.0616C111.004 43.7393 111.622 42.01 111.622 39.9756C111.622 37.9413 110.901 36.212 109.561 34.8897C108.221 33.5673 106.469 32.8553 104.511 32.8553C102.552 32.8553 100.903 33.5673 99.5633 34.8897C98.2234 36.212 97.605 37.9413 97.605 39.9756C97.605 42.01 98.2234 43.7393 99.5633 45.0616C100.903 46.384 102.552 47.096 104.511 47.096C106.469 47.096 108.221 46.384 109.561 45.0616Z" fill="#404040"/>
<path id="Vector_3" d="M122.857 51.5716V19.5301H135.225C138.008 19.5301 140.481 20.5473 142.543 22.4799C144.604 24.4126 145.738 26.9556 145.738 30.0072C145.738 32.957 144.707 35.5 142.543 37.4327C140.481 39.3653 138.008 40.3825 135.225 40.3825H128.628V51.5716H122.857ZM128.628 35.1948H134.916C137.492 35.1948 139.966 33.2622 139.966 30.0072C139.966 26.6504 137.492 24.7178 134.916 24.7178H128.628V35.1948Z" fill="#8D000E"/>
<path id="Vector_4" d="M149.963 51.5716V19.5301H155.529V51.5716H149.963Z" fill="#8D000E"/>
<path id="Vector_5" d="M178.719 31.7364V28.3796H184.285V51.5716H178.719V48.2149C177.894 50.4527 175.112 52.0802 171.195 52.0802C167.897 52.0802 165.114 50.9613 162.847 48.6218C160.579 46.2822 159.445 43.4341 159.445 39.9756C159.445 36.5172 160.579 33.669 162.847 31.3295C165.114 28.99 167.897 27.871 171.195 27.871C175.009 27.871 177.894 29.4986 178.719 31.7364ZM176.967 45.0616C178.41 43.7392 179.028 42.01 179.028 39.9756C179.028 37.9412 178.307 36.212 176.967 34.8897C175.627 33.5673 173.875 32.8553 171.916 32.8553C169.958 32.8553 168.309 33.5673 166.969 34.8897C165.629 36.212 165.011 37.9412 165.011 39.9756C165.011 42.01 165.629 43.7392 166.969 45.0616C168.309 46.3839 169.958 47.096 171.916 47.096C173.978 47.096 175.627 46.3839 176.967 45.0616Z" fill="#8D000E"/>
<path id="Vector_6" d="M190.778 51.5716V33.3639H187.789V28.3797H190.778V19.5301H196.344V28.3797H201.394V33.3639H196.344V51.5716H190.778Z" fill="#8D000E"/>
<path id="Vector_7" d="M203.352 51.5716V48.2149L216.751 33.3639H204.795V28.4814H224.584V32.3467L211.701 46.7908H225.1V51.6734H203.352V51.5716Z" fill="#8D000E"/>
<path id="Vector_8" d="M246.435 31.7364V28.3796H252V51.5716H246.435V48.2149C245.61 50.4527 242.827 52.0802 238.911 52.0802C235.613 52.0802 232.83 50.9613 230.562 48.6218C228.295 46.2822 227.161 43.4341 227.161 39.9756C227.161 36.5172 228.295 33.669 230.562 31.3295C232.83 28.99 235.613 27.871 238.911 27.871C242.827 27.871 245.713 29.4986 246.435 31.7364ZM244.786 45.0616C246.229 43.7392 246.847 42.01 246.847 39.9756C246.847 37.9412 246.126 36.212 244.786 34.8897C243.446 33.5673 241.694 32.8553 239.735 32.8553C237.777 32.8553 236.128 33.5673 234.788 34.8897C233.448 36.212 232.83 37.9412 232.83 39.9756C232.83 42.01 233.448 43.7392 234.788 45.0616C236.128 46.3839 237.777 47.096 239.735 47.096C241.694 47.096 243.446 46.3839 244.786 45.0616Z" fill="#8D000E"/>
</g>
<g id="Group_3">
<path id="Vector_9" d="M67.8186 65.3037V58.692H70.1891C71.3229 58.692 72.1474 58.9971 72.7658 59.6074C73.3842 60.2178 73.6934 61.0315 73.6934 61.947C73.6934 62.8625 73.3842 63.7779 72.7658 64.2865C72.1474 64.8968 71.3229 65.202 70.1891 65.202H67.8186V65.3037ZM69.0554 64.2865H70.1891C71.8382 64.2865 72.5597 63.4728 72.5597 62.0487C72.5597 60.6246 71.8382 59.8109 70.1891 59.8109H69.0554V64.2865Z" fill="#404040"/>
<path id="Vector_10" d="M74.9303 65.3037V58.692H79.1561V59.7092H76.064V61.235H78.9499V62.2521H76.064V64.0831H79.1561V65.1003H74.9303V65.3037Z" fill="#404040"/>
<path id="Vector_11" d="M80.3928 65.3037V58.692H81.4235L83.7941 62.3539L86.1646 58.692H87.1953V65.3037H86.0615V60.8281L83.7941 64.2865L81.5266 60.8281V65.3037H80.3928Z" fill="#404040"/>
<path id="Vector_12" d="M89.3597 64.49C88.6382 63.8797 88.329 63.0659 88.329 62.0487C88.329 61.1332 88.6382 60.3195 89.3597 59.6074C90.0811 58.8954 90.9057 58.5903 91.8333 58.5903C92.8639 58.5903 93.6885 58.8954 94.3069 59.6074C95.0284 60.2178 95.3376 61.0315 95.3376 62.0487C95.3376 62.9642 95.0284 63.7779 94.3069 64.49C93.5854 65.1003 92.7609 65.5072 91.8333 65.5072C90.9057 65.5072 90.0811 65.1003 89.3597 64.49ZM90.1842 63.6762C90.5965 64.0831 91.2149 64.3883 91.8333 64.3883C92.4517 64.3883 93.0701 64.1848 93.4824 63.6762C93.8946 63.2693 94.2038 62.659 94.2038 62.0487C94.2038 61.3367 93.9977 60.8281 93.4824 60.4212C93.0701 60.0143 92.4517 59.7092 91.8333 59.7092C91.2149 59.7092 90.5965 59.9126 90.1842 60.4212C89.7719 60.8281 89.5658 61.4384 89.5658 62.0487C89.5658 62.7607 89.7719 63.2693 90.1842 63.6762Z" fill="#404040"/>
<path id="Vector_13" d="M102.346 59.8109L101.522 60.5229C101.006 60.0143 100.388 59.7092 99.6664 59.7092C98.9449 59.7092 98.4296 59.9126 98.0173 60.4212C97.6051 60.8281 97.2959 61.4384 97.2959 62.0487C97.2959 62.7607 97.502 63.2693 98.0173 63.6762C98.4296 64.0831 99.048 64.3882 99.6664 64.3882C100.388 64.3882 101.006 64.0831 101.522 63.5745L102.346 64.2865C101.728 64.9986 100.697 65.5072 99.6664 65.5072C98.6357 65.5072 97.8112 65.202 97.1928 64.5917C96.4713 63.9814 96.1621 63.1676 96.1621 62.1504C96.1621 61.1332 96.4713 60.3195 97.1928 59.7092C97.9143 59.0988 98.7388 58.692 99.6664 58.692C100.8 58.5902 101.625 58.9971 102.346 59.8109Z" fill="#404040"/>
<path id="Vector_14" d="M103.377 65.3037V58.692H105.954C106.572 58.692 107.088 58.8954 107.5 59.3023C107.912 59.7092 108.118 60.2178 108.118 60.8281C108.118 61.6419 107.603 62.3539 106.881 62.659L108.531 65.3037H107.191L105.748 62.9642H104.614V65.3037H103.377ZM104.511 61.947H105.748C106.366 61.947 106.881 61.5401 106.881 60.8281C106.881 60.2178 106.469 59.8109 105.851 59.8109H104.511V61.947Z" fill="#404040"/>
<path id="Vector_15" d="M108.633 65.3037L111.416 58.692H112.447L115.229 65.3037H113.993L113.477 63.9814H110.488L109.973 65.3037H108.633ZM110.901 63.0659H113.168L112.034 60.4212L110.901 63.0659Z" fill="#404040"/>
<path id="Vector_16" d="M116.673 65.3037V59.8109H114.817V58.7937H119.662V59.8109H117.806V65.3037H116.673Z" fill="#404040"/>
<path id="Vector_17" d="M120.589 65.3037V58.692H121.826V65.3037H120.589Z" fill="#404040"/>
<path id="Vector_18" d="M123.681 63.3711C123.99 64.0831 124.609 64.3882 125.33 64.3882C126.155 64.3882 126.464 63.9814 126.464 63.5745C126.464 63.2693 126.361 63.0659 126.052 62.8625C125.743 62.659 125.536 62.5573 125.124 62.4556C124.506 62.2521 124.196 62.0487 123.784 61.7436C123.372 61.4384 123.269 61.0315 123.269 60.4212C123.269 59.9126 123.475 59.5057 123.887 59.0989C124.3 58.7937 124.815 58.5903 125.33 58.5903C126.258 58.5903 126.979 58.9971 127.392 59.6074L126.567 60.2178C126.258 59.8109 125.949 59.6074 125.33 59.6074C124.815 59.6074 124.403 59.9126 124.403 60.3195C124.403 60.6246 124.506 60.7264 124.712 60.9298C124.815 61.0315 125.124 61.1332 125.227 61.235L125.536 61.3367L125.949 61.4384C126.567 61.7436 126.979 61.947 127.289 62.2521C127.598 62.5573 127.701 62.9642 127.701 63.4728C127.701 64.5917 126.876 65.4054 125.33 65.4054C124.093 65.4054 123.166 64.7951 122.754 63.8797L123.681 63.3711Z" fill="#404040"/>
<path id="Vector_19" d="M128.835 65.3037V58.692H130.071V65.3037H128.835Z" fill="#404040"/>
<path id="Vector_20" d="M131.514 65.3037V58.692H132.545L136.049 63.2694V58.692H137.183V65.3037H136.255L132.648 60.6247V65.3037H131.514Z" fill="#404040"/>
<path id="Vector_21" d="M144.398 59.6074L143.574 60.3195C143.161 59.9126 142.543 59.7092 141.924 59.7092C141.203 59.7092 140.688 59.9126 140.275 60.4212C139.863 60.8281 139.554 61.4384 139.554 62.0487C139.554 62.7607 139.76 63.2693 140.275 63.6762C140.688 64.0831 141.306 64.3882 141.924 64.3882C142.543 64.3882 143.058 64.1848 143.47 63.7779V62.5573H141.615V61.5401H144.604V64.1848C143.986 64.9986 142.955 65.4054 141.924 65.4054C140.894 65.4054 140.069 65.1003 139.451 64.49C138.729 63.8797 138.42 63.0659 138.42 62.0487C138.42 61.0315 138.729 60.2178 139.451 59.6074C140.172 58.9971 140.997 58.5903 141.924 58.5903C142.955 58.5903 143.78 58.9971 144.398 59.6074Z" fill="#404040"/>
<path id="Vector_22" d="M149.448 63.2693V62.2522H152.643V63.2693H149.448Z" fill="#404040"/>
<path id="Vector_23" d="M163.053 59.6074L162.229 60.3195C161.816 59.9126 161.198 59.7092 160.58 59.7092C159.858 59.7092 159.343 59.9126 158.931 60.4212C158.518 60.8281 158.209 61.4384 158.209 62.0487C158.209 62.7607 158.415 63.2693 158.931 63.6762C159.343 64.0831 159.961 64.3882 160.58 64.3882C161.198 64.3882 161.713 64.1848 162.126 63.7779V62.5573H160.27V61.5401H163.259V64.1848C162.641 64.9986 161.61 65.4054 160.58 65.4054C159.549 65.4054 158.724 65.1003 158.106 64.49C157.385 63.8797 157.075 63.0659 157.075 62.0487C157.075 61.0315 157.385 60.2178 158.106 59.6074C158.827 58.9971 159.652 58.5903 160.58 58.5903C161.507 58.5903 162.332 58.9971 163.053 59.6074Z" fill="#404040"/>
<path id="Vector_24" d="M164.496 65.3037V58.692H165.733V64.1848H168.412V65.202H164.496V65.3037Z" fill="#404040"/>
<path id="Vector_25" d="M169.752 64.49C169.031 63.8797 168.722 63.0659 168.722 62.0487C168.722 61.1332 169.031 60.3195 169.752 59.6074C170.474 58.8954 171.298 58.5903 172.226 58.5903C173.257 58.5903 174.081 58.8954 174.7 59.6074C175.421 60.2178 175.73 61.0315 175.73 62.0487C175.73 62.9642 175.421 63.7779 174.7 64.49C173.978 65.1003 173.154 65.5072 172.226 65.5072C171.298 65.5072 170.474 65.1003 169.752 64.49ZM170.577 63.6762C170.989 64.0831 171.608 64.3883 172.226 64.3883C172.844 64.3883 173.463 64.1848 173.875 63.6762C174.287 63.2693 174.597 62.659 174.597 62.0487C174.597 61.3367 174.39 60.8281 173.875 60.4212C173.463 60.0143 172.844 59.7092 172.226 59.7092C171.608 59.7092 170.989 59.9126 170.577 60.4212C170.165 60.8281 169.855 61.4384 169.855 62.0487C169.855 62.7607 170.165 63.2693 170.577 63.6762Z" fill="#404040"/>
<path id="Vector_26" d="M176.864 65.3037V58.692H179.234C179.75 58.692 180.162 58.8954 180.574 59.2006C180.987 59.5058 181.09 59.9126 181.09 60.4212C181.09 61.0315 180.78 61.5401 180.265 61.7436C181.09 61.8453 181.605 62.5573 181.605 63.3711C181.605 63.8797 181.399 64.3883 180.987 64.7952C180.574 65.202 180.162 65.3037 179.544 65.3037H176.864ZM178.101 61.4384H179.131C179.647 61.4384 179.956 61.1333 179.956 60.6247C179.956 60.2178 179.647 59.8109 179.131 59.8109H178.101V61.4384ZM178.101 64.2866H179.441C180.059 64.2866 180.471 63.8797 180.471 63.3711C180.471 62.8625 180.059 62.4556 179.441 62.4556H178.101V64.2866Z" fill="#404040"/>
<path id="Vector_27" d="M182.12 65.3037L184.903 58.692H185.934L188.717 65.3037H187.48L186.965 63.9814H183.976L183.46 65.3037H182.12ZM184.285 63.0659H186.552L185.419 60.4212L184.285 63.0659Z" fill="#404040"/>
<path id="Vector_28" d="M189.644 65.3037V58.692H190.881V64.1848H193.561V65.202H189.644V65.3037Z" fill="#404040"/>
<path id="Vector_29" d="M197.89 65.3037V58.692H202.116V59.7092H199.024V61.235H201.909V62.2521H199.024V64.0831H202.116V65.1003H197.89V65.3037Z" fill="#404040"/>
<path id="Vector_30" d="M203.456 65.3037V58.692H205.826C206.96 58.692 207.785 58.9972 208.403 59.6075C209.021 60.2178 209.331 61.0315 209.331 61.947C209.331 62.8625 209.021 63.778 208.403 64.2866C207.785 64.8969 206.96 65.202 205.826 65.202H203.456V65.3037ZM204.693 64.2866H205.826C207.475 64.2866 208.197 63.4728 208.197 62.0487C208.197 60.6247 207.475 59.8109 205.826 59.8109H204.693V64.2866Z" fill="#404040"/>
<path id="Vector_31" d="M210.464 58.7937H211.701V62.7608C211.701 63.8797 212.216 64.49 213.247 64.49C214.174 64.49 214.793 63.9814 214.793 62.7608V58.7937H216.03V62.8625C216.03 63.6762 215.824 64.3883 215.308 64.7951C214.793 65.202 214.174 65.5072 213.35 65.5072C212.525 65.5072 211.907 65.3037 211.392 64.7951C210.876 64.3883 210.67 63.6762 210.67 62.8625V58.7937H210.464Z" fill="#404040"/>
<path id="Vector_32" d="M223.038 59.8109L222.214 60.5229C221.699 60.0143 221.08 59.7092 220.359 59.7092C219.637 59.7092 219.122 59.9126 218.71 60.4212C218.297 60.8281 217.988 61.4384 217.988 62.0487C217.988 62.7608 218.194 63.2694 218.71 63.6762C219.122 64.0831 219.74 64.3883 220.359 64.3883C221.08 64.3883 221.699 64.0831 222.214 63.5745L223.038 64.2865C222.42 64.9986 221.389 65.5072 220.359 65.5072C219.328 65.5072 218.503 65.202 217.885 64.5917C217.164 63.9814 216.854 63.1676 216.854 62.1504C216.854 61.1333 217.164 60.3195 217.885 59.7092C218.607 59.0989 219.431 58.692 220.359 58.692C221.492 58.5903 222.42 58.9972 223.038 59.8109Z" fill="#404040"/>
<path id="Vector_33" d="M223.554 65.3037L226.336 58.692H227.367L230.15 65.3037H228.913L228.398 63.9814H225.409L224.893 65.3037H223.554ZM225.718 63.0659H227.985L226.852 60.4212L225.718 63.0659Z" fill="#404040"/>
<path id="Vector_34" d="M231.49 65.3037V59.8109H229.635V58.7937H234.479V59.8109H232.623V65.3037H231.49Z" fill="#404040"/>
<path id="Vector_35" d="M235.509 65.3037V58.692H236.746V65.3037H235.509Z" fill="#404040"/>
<path id="Vector_36" d="M238.91 64.49C238.189 63.8797 237.88 63.0659 237.88 62.0487C237.88 61.1332 238.189 60.3195 238.91 59.6074C239.632 58.8954 240.456 58.5903 241.384 58.5903C242.415 58.5903 243.239 58.8954 243.858 59.6074C244.579 60.2178 244.888 61.0315 244.888 62.0487C244.888 62.9642 244.579 63.7779 243.858 64.49C243.136 65.1003 242.312 65.5072 241.384 65.5072C240.353 65.5072 239.529 65.1003 238.91 64.49ZM239.735 63.6762C240.147 64.0831 240.766 64.3883 241.384 64.3883C242.002 64.3883 242.621 64.1848 243.033 63.6762C243.445 63.2693 243.754 62.659 243.754 62.0487C243.754 61.3367 243.548 60.8281 243.033 60.4212C242.621 60.0143 242.002 59.7092 241.384 59.7092C240.766 59.7092 240.147 59.9126 239.735 60.4212C239.323 60.8281 239.116 61.4384 239.116 62.0487C239.013 62.7607 239.22 63.2693 239.735 63.6762Z" fill="#404040"/>
<path id="Vector_37" d="M246.022 65.3037V58.692H247.053L250.557 63.2694V58.692H251.691V65.3037H250.764L247.156 60.6247V65.3037H246.022Z" fill="#404040"/>
</g>
<g id="Group_4">
<g id="Group_5">
<path id="Vector_38" d="M33.4969 0L1.44287 13.5287L13.2956 18.6146L13.7079 25.3281C28.0343 12.6132 45.7619 19.8352 45.7619 19.8352L45.6588 17.394L56.7901 15.563L33.4969 0Z" fill="#404040"/>
<path id="Vector_39" d="M1.64922 36.8223C1.64922 36.8223 -5.46244 22.0731 10.2038 16.1734C10.2038 16.1734 0.103203 22.2765 5.56578 32.6519C5.56578 32.7536 2.88603 32.3467 1.64922 36.8223Z" fill="#404040"/>
</g>
<g id="Group_6">
<g id="Group_7">
<path id="Vector_40" d="M58.6454 45.7736C58.6454 32.4484 48.1325 21.4628 34.8368 20.5473V26.7522C44.6282 27.6676 52.3583 35.9069 52.3583 45.7736C52.3583 55.6404 44.6282 63.8797 34.8368 64.7951V71C48.1325 69.9828 58.6454 59.0989 58.6454 45.7736Z" fill="#8D000E"/>
<path id="Vector_41" d="M13.811 48.8252H31.0233V42.6204H13.811C15.2539 34.0759 22.2625 27.4642 31.0233 26.6504V20.4456C17.8306 21.4628 7.31775 32.3467 7.31775 45.7736C7.31775 59.2006 17.8306 70.0845 31.1263 71V64.7951C22.2625 63.9814 15.2539 57.2679 13.811 48.8252Z" fill="#8D000E"/>
</g>
</g>
</g>
</g>
</svg>
