<svg width="14" height="12" viewBox="0 0 14 12" fill="none" xmlns="http://www.w3.org/2000/svg">
<path id="Vector" d="M14 5.99469C13.9951 5.46859 13.7832 4.96559 13.41 4.59469L9.12 0.294699C8.93264 0.108448 8.67919 0.00390625 8.415 0.00390625C8.15081 0.00390625 7.89736 0.108448 7.71 0.294699C7.61627 0.387662 7.54188 0.498263 7.49111 0.620122C7.44034 0.741981 7.4142 0.872686 7.4142 1.0047C7.4142 1.13671 7.44034 1.26741 7.49111 1.38927C7.54188 1.51113 7.61627 1.62173 7.71 1.7147L11 4.99469H1C0.734784 4.99469 0.48043 5.10005 0.292893 5.28759C0.105357 5.47512 0 5.72948 0 5.99469C0 6.25991 0.105357 6.51426 0.292893 6.7018C0.48043 6.88933 0.734784 6.99469 1 6.99469H11L7.71 10.2847C7.5217 10.4717 7.41538 10.7258 7.41444 10.9912C7.41351 11.2565 7.51802 11.5114 7.705 11.6997C7.89198 11.888 8.1461 11.9943 8.41146 11.9952C8.67683 11.9962 8.9317 11.8917 9.12 11.7047L13.41 7.40469C13.7856 7.03134 13.9978 6.52427 14 5.99469Z" fill="#8D000E"/>
</svg>
