<svg width="22" height="22" viewBox="0 0 22 22" fill="none" xmlns="http://www.w3.org/2000/svg">
<path d="M17.7228 13.445C17.0297 13.4455 16.3472 13.6147 15.7341 13.938C15.121 14.2612 14.5958 14.7288 14.2037 15.3003L8.23714 12.6062C8.66093 11.5829 8.66258 10.4334 8.24173 9.40889L14.2001 6.70106C14.7811 7.54142 15.6441 8.14569 16.6325 8.40427C17.6209 8.66284 18.6693 8.5586 19.5874 8.11044C20.5056 7.66227 21.2327 6.89988 21.6368 5.96155C22.041 5.02322 22.0955 3.97111 21.7904 2.99605C21.4853 2.021 20.8408 1.18758 19.9739 0.646986C19.107 0.10639 18.075 -0.105582 17.0651 0.0495216C16.0553 0.204625 15.1345 0.716529 14.4698 1.49238C13.805 2.26823 13.4404 3.25664 13.442 4.27831C13.4459 4.52013 13.4704 4.76117 13.5153 4.99881L7.18114 7.87714C6.57279 7.30718 5.81119 6.92733 4.98992 6.78426C4.16865 6.64119 3.32347 6.74113 2.55822 7.07181C1.79297 7.40249 1.14098 7.9495 0.682341 8.64564C0.223706 9.34178 -0.0215955 10.1567 -0.0234272 10.9904C-0.0252588 11.824 0.216459 12.64 0.672031 13.3382C1.1276 14.0363 1.77718 14.5862 2.54098 14.9202C3.30477 15.2543 4.1495 15.3579 4.97139 15.2185C5.79328 15.079 6.55654 14.7025 7.16739 14.1352L13.5181 17.0026C13.474 17.24 13.4497 17.4807 13.4456 17.7221C13.4455 18.5683 13.6962 19.3956 14.1662 20.0993C14.6363 20.8029 15.3044 21.3514 16.0862 21.6753C16.8679 21.9992 17.7282 22.084 18.5581 21.919C19.3881 21.7539 20.1504 21.3465 20.7488 20.7481C21.3471 20.1498 21.7546 19.3874 21.9197 18.5574C22.0847 17.7275 21.9999 16.8672 21.676 16.0855C21.3521 15.3037 20.8036 14.6356 20.0999 14.1656C19.3963 13.6956 18.569 13.4448 17.7228 13.445ZM17.7228 1.83356C18.2064 1.83338 18.6791 1.97661 19.0813 2.24513C19.4834 2.51365 19.7969 2.89541 19.9821 3.34211C20.1673 3.78881 20.2158 4.2804 20.1216 4.7547C20.0274 5.22899 19.7946 5.66469 19.4528 6.00669C19.1109 6.34868 18.6753 6.58161 18.201 6.67602C17.7268 6.77042 17.2351 6.72206 16.7884 6.53705C16.3416 6.35204 15.9597 6.03869 15.6911 5.63664C15.4224 5.23458 15.279 4.76188 15.279 4.27831C15.2795 3.63023 15.5371 3.00882 15.9952 2.55047C16.4534 2.09212 17.0747 1.83429 17.7228 1.83356ZM4.27898 13.445C3.79541 13.4452 3.32266 13.3019 2.9205 13.0334C2.51834 12.7649 2.20485 12.3831 2.01967 11.9364C1.83449 11.4897 1.78595 10.9981 1.88017 10.5238C1.9744 10.0495 2.20717 9.61385 2.54904 9.27185C2.89091 8.92986 3.32652 8.69693 3.80078 8.60252C4.27504 8.50811 4.76664 8.55647 5.21341 8.74148C5.66019 8.9265 6.04206 9.23984 6.31073 9.6419C6.57941 10.044 6.72281 10.5167 6.72281 11.0002C6.72208 11.6482 6.46441 12.2695 6.00628 12.7278C5.54816 13.1861 4.92698 13.444 4.27898 13.445ZM17.7228 20.1669C17.2393 20.1669 16.7666 20.0235 16.3646 19.7549C15.9625 19.4862 15.6492 19.1044 15.4642 18.6577C15.2791 18.211 15.2307 17.7194 15.325 17.2452C15.4194 16.771 15.6522 16.3353 15.9941 15.9934C16.336 15.6515 16.7716 15.4187 17.2459 15.3244C17.7201 15.23 18.2117 15.2785 18.6584 15.4635C19.1051 15.6485 19.4869 15.9619 19.7555 16.3639C20.0242 16.766 20.1676 17.2386 20.1676 17.7221C20.1671 18.3704 19.9093 18.9919 19.451 19.4503C18.9926 19.9087 18.3711 20.1664 17.7228 20.1669Z" fill="#E95C40"/>
</svg>
