<svg width="35" height="35" viewBox="0 0 35 35" fill="none" xmlns="http://www.w3.org/2000/svg">
<g clip-path="url(#clip0_402_7575)">
<path d="M20.1927 4.06523L20.1927 4.06527L20.2017 4.05612C20.455 3.79851 20.8726 3.78427 21.1529 4.05512C21.3121 4.2172 21.3844 4.44614 21.3369 4.68986L19.9529 11.3624L19.5786 13.1671H21.4216H29.6612C31.716 13.1671 33.1118 15.2723 32.3062 17.1751C32.3059 17.1758 32.3056 17.1764 32.3053 17.1771L27.5562 28.2633C27.3231 28.7899 26.8071 29.1254 26.2487 29.1254H13.1237C12.348 29.1254 11.707 28.4845 11.707 27.7087V13.14C11.707 12.7598 11.8588 12.3991 12.1135 12.1444L20.1927 4.06523ZM5.79036 27.7087C5.79036 28.4845 5.14944 29.1254 4.3737 29.1254C3.59796 29.1254 2.95703 28.4845 2.95703 27.7087V16.0421C2.95703 15.2663 3.59796 14.6254 4.3737 14.6254C5.14944 14.6254 5.79036 15.2663 5.79036 16.0421V27.7087Z" stroke="#BEBEBE" stroke-width="3"/>
</g>
<defs>
<clipPath id="clip0_402_7575">
<rect width="35" height="35" fill="white"/>
</clipPath>
</defs>
</svg>
