<svg width="29" height="17" viewBox="0 0 29 17" fill="none" xmlns="http://www.w3.org/2000/svg">
<g id="Flags" clip-path="url(#clip0_69_11300)">
<path id="Vector" d="M-1.99225 0.412109V16.5884H30.9922V0.412109H-1.99225Z" fill="#012169"/>
<path id="Vector_2" d="M-1.99225 0.412109L30.9922 16.5884L-1.99225 0.412109ZM30.9922 0.412109L-1.99225 16.5869L30.9922 0.412109Z" fill="black"/>
<path id="Vector_3" d="M30.2552 18.0355L14.5001 10.3081L-1.25508 18.0355L-2.72925 15.1392L10.8116 8.49919L-2.72925 1.85919L-1.25508 -1.03711L14.5001 6.6903L30.2552 -1.03711L31.7294 1.85919L18.1885 8.49919L31.7294 15.1392L30.2552 18.0355Z" fill="white"/>
<path id="Vector_4" d="M-1.99225 0.412109L30.9922 16.5884L-1.99225 0.412109ZM30.9922 0.412109L-1.99225 16.5869L30.9922 0.412109Z" fill="black"/>
<path id="Vector_5" d="M30.4999 17.552L14.5 9.70309L-1.49983 17.552L-2.48462 15.6216L12.0426 8.49865L-2.48462 1.37568L-1.49983 -0.554688L14.5 7.2942L30.4999 -0.554688L31.4847 1.37568L16.9575 8.49865L31.4847 15.6216L30.4999 17.552Z" fill="#C8102E"/>
<path id="Vector_6" d="M14.5 0.412109V16.5884V0.412109ZM-1.99225 8.49952H30.9922H-1.99225Z" fill="black"/>
<path id="Vector_7" d="M17.2489 16.5869H11.751V11.1958H-1.99225V5.80322H11.751V0.412109H17.2489V5.80322H30.9922V11.1958H17.2489V16.5869Z" fill="white"/>
<path id="Vector_8" d="M14.5 0.412109V16.5884V0.412109ZM-1.99225 8.49952H30.9922H-1.99225Z" fill="black"/>
<path id="Vector_9" d="M16.1494 16.5869H12.8506V10.1173H-1.99225V6.88174H12.8506V0.412109H16.1494V6.88174H30.9922V10.1173H16.1494V16.5869Z" fill="#C8102E"/>
</g>
<defs>
<clipPath id="clip0_69_11300">
<rect width="29" height="16" fill="white" transform="translate(0 0.5)"/>
</clipPath>
</defs>
</svg>
