<svg width="80" height="80" viewBox="0 0 80 80" fill="none" xmlns="http://www.w3.org/2000/svg">
<g id="dotpoints-02">
<path id="Icon" d="M70 16.666L33.3333 16.666M70 63.3327L33.3333 63.3327M70 39.9994L33.3333 39.9994M20 16.666C20 19.4274 17.7614 21.666 15 21.666C12.2386 21.666 10 19.4274 10 16.666C10 13.9046 12.2386 11.666 15 11.666C17.7614 11.666 20 13.9046 20 16.666ZM20 63.3327C20 66.0941 17.7614 68.3327 15 68.3327C12.2386 68.3327 10 66.0941 10 63.3327C10 60.5713 12.2386 58.3327 15 58.3327C17.7614 58.3327 20 60.5713 20 63.3327ZM20 39.9994C20 42.7608 17.7614 44.9994 15 44.9994C12.2386 44.9994 10 42.7608 10 39.9994C10 37.2379 12.2386 34.9994 15 34.9994C17.7614 34.9994 20 37.2379 20 39.9994Z" stroke="#8D000E" stroke-width="5" stroke-linecap="round" stroke-linejoin="round"/>
</g>
</svg>
