<svg width="80" height="80" viewBox="0 0 80 80" fill="none" xmlns="http://www.w3.org/2000/svg">
<g id="pencil-01">
<path id="Icon" d="M8.33301 71.6664L26.8306 64.5519C28.0137 64.0969 28.6053 63.8694 29.1587 63.5723C29.6503 63.3084 30.119 63.0038 30.5598 62.6617C31.0561 62.2766 31.5043 61.8285 32.4006 60.9321L69.9997 23.333C73.6817 19.6511 73.6817 13.6816 69.9998 9.99971C66.3179 6.31781 60.3483 6.31781 56.6664 9.9997L19.0673 47.5988C18.1709 48.4951 17.7228 48.9433 17.3376 49.4396C16.9956 49.8804 16.691 50.349 16.4271 50.8407C16.13 51.3941 15.9025 51.9857 15.4474 53.1688L8.33301 71.6664ZM8.33301 71.6664L15.1934 53.8296C15.6843 52.5532 15.9298 51.915 16.3508 51.6227C16.7187 51.3672 17.174 51.2706 17.614 51.3546C18.1175 51.4507 18.601 51.9342 19.568 52.9012L27.0983 60.4315C28.0652 61.3985 28.5487 61.882 28.6449 62.3855C28.7289 62.8255 28.6323 63.2807 28.3768 63.6487C28.0845 64.0697 27.4463 64.3151 26.1699 64.8061L8.33301 71.6664Z" stroke="#8D000E" stroke-width="5" stroke-linecap="round" stroke-linejoin="round"/>
</g>
</svg>
