<svg width="19" height="17" viewBox="0 0 19 17" fill="none" xmlns="http://www.w3.org/2000/svg">
<g id="android (1) 1" clip-path="url(#clip0_1687_89)">
<g id="XMLID_197_">
<path id="XMLID_221_" d="M10.9235 16.4258C11.5278 16.4258 12.0548 15.9593 12.0548 15.4243V13.0854H12.8102C13.2635 13.0854 13.5656 12.8178 13.5656 12.4166V5.73633H4.50813V12.4167C4.50813 12.8179 4.81029 13.0854 5.26352 13.0854H6.01896V15.4243C6.01896 15.9593 6.54583 16.4258 7.15026 16.4258C7.75451 16.4258 8.28144 15.9593 8.28144 15.4243V13.0854H9.79227V15.4243C9.79221 15.9593 10.3192 16.4258 10.9235 16.4258Z" fill="black"/>
<path id="XMLID_222_" d="M15.4523 12.4167C16.0567 12.4167 16.5835 11.9502 16.5835 11.4152V6.7374C16.5835 6.20526 16.0567 5.73633 15.4523 5.73633C14.848 5.73633 14.321 6.20526 14.321 6.7374V11.4152C14.321 11.9502 14.8479 12.4167 15.4523 12.4167Z" fill="black"/>
<path id="XMLID_223_" d="M2.62145 12.4167C3.22582 12.4167 3.75275 11.9502 3.75275 11.4152V6.7374C3.75275 6.20526 3.22588 5.73633 2.62145 5.73633C2.01714 5.73633 1.49027 6.20526 1.49027 6.7374V11.4152C1.49027 11.9502 2.01714 12.4167 2.62145 12.4167Z" fill="black"/>
<path id="XMLID_224_" d="M12.6591 0.526689C12.508 0.392145 12.2832 0.392145 12.1322 0.526689L11.119 1.42061L11.0723 1.46193C10.4715 1.19562 9.798 1.06262 9.04792 1.06134C9.04425 1.06134 9.04063 1.06123 9.03695 1.06123H9.03683C9.03303 1.06123 9.02953 1.06134 9.02573 1.06134C8.27571 1.06262 7.60217 1.19562 7.00148 1.46193L6.95462 1.42061L5.94153 0.526689C5.79039 0.392145 5.56567 0.392145 5.41466 0.526689C5.26352 0.660486 5.26352 0.859045 5.41466 0.992735L6.3947 1.86049C6.07891 2.04714 5.79256 2.27555 5.54354 2.53679C4.94737 3.16236 4.56712 3.97651 4.51483 4.85863C4.51434 4.86781 4.51332 4.87689 4.51284 4.88607C4.50964 4.94614 4.50813 5.00652 4.50813 5.06712H13.5656C13.5656 5.00652 13.564 4.94614 13.5609 4.88607C13.5604 4.87689 13.5594 4.86781 13.5588 4.85863C13.5066 3.97651 13.1262 3.16231 12.5301 2.53684C12.2812 2.2756 11.9947 2.0472 11.6789 1.86054L12.6591 0.992788C12.8102 0.859045 12.8102 0.660486 12.6591 0.526689ZM7.14882 3.89953C6.83629 3.89953 6.58293 3.67523 6.58293 3.39856C6.58293 3.12189 6.83629 2.8976 7.14882 2.8976C7.46134 2.8976 7.71471 3.12189 7.71471 3.39856C7.71471 3.67523 7.46134 3.89953 7.14882 3.89953ZM10.9249 3.89953C10.6124 3.89953 10.359 3.67523 10.359 3.39856C10.359 3.12189 10.6124 2.8976 10.9249 2.8976C11.2374 2.8976 11.4908 3.12189 11.4908 3.39856C11.4908 3.67523 11.2374 3.89953 10.9249 3.89953Z" fill="black"/>
</g>
</g>
<defs>
<clipPath id="clip0_1687_89">
<rect width="18.0737" height="16" fill="white" transform="translate(0 0.425781)"/>
</clipPath>
</defs>
</svg>
