<svg width="19" height="17" viewBox="0 0 19 17" fill="none" xmlns="http://www.w3.org/2000/svg">
<g id="apple 1" clip-path="url(#clip0_1687_82)">
<g id="Group">
<g id="Group_2">
<path id="Vector" d="M12.4249 0.425781C11.4613 0.484781 10.3351 1.03078 9.67884 1.74177C9.08015 2.38677 8.58765 3.34476 8.77968 4.27576C9.83246 4.30476 10.9203 3.74576 11.5506 3.02277C12.1402 2.34977 12.5864 1.39778 12.4249 0.425781Z" fill="black"/>
</g>
</g>
<g id="Group_3">
<g id="Group_4">
<path id="Vector_2" d="M16.2328 5.7939C15.3076 4.7669 14.0075 4.1709 12.7796 4.1709C11.1586 4.1709 10.473 4.8579 9.34674 4.8579C8.18551 4.8579 7.30329 4.1729 5.90146 4.1729C4.52448 4.1729 3.05825 4.9179 2.12859 6.19189C0.821644 7.98589 1.04531 11.3589 3.16331 14.2319C3.92127 15.2599 4.93339 16.4159 6.25728 16.4259C7.43546 16.4359 7.76756 15.7569 9.36369 15.7499C10.9598 15.7419 11.2625 16.4349 12.4385 16.4239C13.7635 16.4149 14.831 15.1339 15.5889 14.1059C16.1323 13.3689 16.3345 12.9979 16.7558 12.1659C13.6912 11.1329 13.1998 7.27489 16.2328 5.7939Z" fill="black"/>
</g>
</g>
</g>
<defs>
<clipPath id="clip0_1687_82">
<rect width="18.0737" height="16" fill="white" transform="translate(0 0.425781)"/>
</clipPath>
</defs>
</svg>
