<svg width="240" height="188" viewBox="0 0 240 188" fill="none" xmlns="http://www.w3.org/2000/svg">
<g id="Group">
<g id="Group_2">
<g id="Group_3">
<path id="Vector" d="M120.9 0.458008L70.4 22.058L89.1 30.158L89.7 40.858C112.2 20.558 140.1 32.058 140.1 32.058L139.9 28.158L157.4 25.258L120.9 0.458008Z" fill="#404040"/>
<path id="Vector_2" d="M70.6 59.2584C70.6 59.2584 59.5 35.6584 84.1 26.3584C84.1 26.3584 68.2 36.0584 76.8 52.7584C76.8 52.6584 72.7 52.0584 70.6 59.2584Z" fill="#404040"/>
</g>
<g id="Group_4">
<g id="Group_5">
<path id="Vector_3" d="M160.5 73.4572C160.5 52.1572 143.9 34.6572 123 33.1572V43.0572C138.5 44.5572 150.6 57.6572 150.6 73.4572C150.6 89.2572 138.5 102.357 123 103.857V113.757C143.9 112.157 160.5 94.7572 160.5 73.4572Z" fill="#8D000E"/>
<path id="Vector_4" d="M89.9 78.3576H117.1V68.4576H89.9C92.1 54.8576 103.2 44.2576 117.1 42.9576V33.0576C96.2 34.5576 79.6 52.0576 79.6 73.3576C79.6 94.6576 96.2 112.158 117.1 113.658V103.758C103.2 102.558 92.1 91.9576 89.9 78.3576Z" fill="#8D000E"/>
</g>
</g>
</g>
<g id="Group_6">
<path id="Vector_5" d="M0.300049 169.258V126.958H27.3V133.858H7.90005V143.958H26V150.858H7.90005V162.558H27.7001V169.458H0.300049V169.258Z" fill="#404040"/>
<path id="Vector_6" d="M56.5 143.058V126.858H63.8V169.158H56.5V164.758C55.5 167.758 51.8 169.858 46.7 169.858C42.4 169.858 38.7 168.358 35.8 165.258C32.9 162.158 31.4 158.358 31.4 153.858C31.4 149.358 32.9 145.558 35.8 142.458C38.8 139.358 42.4 137.858 46.7 137.858C51.7 137.958 55.4 140.158 56.5 143.058ZM54.3 160.658C56.1 158.858 57 156.658 57 153.958C57 151.258 56.1 149.058 54.3 147.258C52.5 145.458 50.3 144.558 47.7 144.558C45.1 144.558 43 145.458 41.2 147.258C39.5 149.058 38.6 151.258 38.6 153.958C38.6 156.658 39.5 158.858 41.2 160.658C43 162.458 45.1 163.358 47.7 163.358C50.3 163.358 52.5 162.358 54.3 160.658Z" fill="#404040"/>
<path id="Vector_7" d="M71.6001 169.258V126.958H87.8001C91.4001 126.958 94.6001 128.258 97.4001 130.758C100.2 133.258 101.6 136.658 101.6 140.758C101.6 144.658 100.2 147.958 97.4001 150.558C94.7001 153.158 91.4001 154.458 87.8001 154.458H79.2001V169.258H71.6001ZM79.2001 147.558H87.4001C90.8001 147.558 94.0001 145.058 94.0001 140.658C94.0001 136.258 90.8001 133.758 87.4001 133.758H79.2001V147.558Z" fill="#8D000E"/>
<path id="Vector_8" d="M106.9 169.258V126.958H114.2V169.258H106.9Z" fill="#8D000E"/>
<path id="Vector_9" d="M144.3 143.058V138.658H151.6V169.258H144.3V164.858C143.3 167.858 139.6 169.958 134.5 169.958C130.2 169.958 126.5 168.458 123.6 165.358C120.7 162.258 119.2 158.458 119.2 153.958C119.2 149.458 120.7 145.658 123.6 142.558C126.6 139.458 130.2 137.958 134.5 137.958C139.6 137.958 143.3 140.158 144.3 143.058ZM142.1 160.658C143.9 158.858 144.8 156.658 144.8 153.958C144.8 151.258 143.9 149.058 142.1 147.258C140.3 145.458 138.1 144.558 135.5 144.558C132.9 144.558 130.8 145.458 129 147.258C127.3 149.058 126.4 151.258 126.4 153.958C126.4 156.658 127.3 158.858 129 160.658C130.8 162.458 132.9 163.358 135.5 163.358C138.1 163.358 140.4 162.358 142.1 160.658Z" fill="#8D000E"/>
<path id="Vector_10" d="M160 169.258V145.258H156V138.658H159.9V126.958H167.2V138.658H173.8V145.258H167.2V169.258H160Z" fill="#8D000E"/>
<path id="Vector_11" d="M176.4 169.258V164.758L193.8 145.158H178.2V138.658H204V143.658L187.2 162.758H204.7V169.258H176.4Z" fill="#8D000E"/>
<path id="Vector_12" d="M232.6 143.058V138.658H239.9V169.258H232.6V164.858C231.6 167.858 227.9 169.958 222.8 169.958C218.5 169.958 214.8 168.458 211.9 165.358C209 162.258 207.5 158.458 207.5 153.958C207.5 149.458 209 145.658 211.9 142.558C214.9 139.458 218.5 137.958 222.8 137.958C227.8 137.958 231.5 140.158 232.6 143.058ZM230.4 160.658C232.2 158.858 233.1 156.658 233.1 153.958C233.1 151.258 232.2 149.058 230.4 147.258C228.6 145.458 226.4 144.558 223.8 144.558C221.2 144.558 219.1 145.458 217.3 147.258C215.6 149.058 214.7 151.258 214.7 153.958C214.7 156.658 215.6 158.858 217.3 160.658C219.1 162.458 221.2 163.358 223.8 163.358C226.4 163.358 228.6 162.358 230.4 160.658Z" fill="#8D000E"/>
</g>
<g id="Group_7">
<path id="Vector_13" d="M0 187.357V178.657H3.1C4.5 178.657 5.7 179.057 6.5 179.857C7.3 180.657 7.7 181.657 7.7 183.057C7.7 184.357 7.3 185.457 6.5 186.157C5.7 186.957 4.6 187.357 3.1 187.357H0ZM1.6 185.957H3C5.2 185.957 6.1 184.857 6.1 183.057C6.1 181.257 5.2 180.057 3 180.057H1.6V185.957Z" fill="#404040"/>
<path id="Vector_14" d="M9.09998 187.357V178.657H14.6V180.057H10.6V182.157H14.3V183.557H10.6V185.957H14.7V187.357H9.09998Z" fill="#404040"/>
<path id="Vector_15" d="M16.3 187.357V178.657H17.6L20.7001 183.557L23.8 178.657H25.1V187.357H23.6V181.457L20.6 186.057L17.6 181.457V187.357H16.3Z" fill="#404040"/>
<path id="Vector_16" d="M28 186.258C27.1 185.358 26.7 184.358 26.7 183.058C26.7 181.758 27.1 180.758 28 179.858C28.9 178.958 29.9999 178.558 31.2999 178.558C32.5999 178.558 33.6999 178.958 34.5999 179.858C35.4999 180.758 35.9 181.758 35.9 183.058C35.9 184.358 35.4999 185.358 34.5999 186.258C33.6999 187.158 32.5999 187.558 31.2999 187.558C29.9999 187.558 28.9 187.158 28 186.258ZM29.1 185.258C29.7 185.858 30.3999 186.158 31.2999 186.158C32.1999 186.158 32.9 185.858 33.5 185.258C34.1 184.658 34.4 183.958 34.4 183.058C34.4 182.158 34.1 181.458 33.5 180.858C32.9 180.258 32.1999 179.958 31.2999 179.958C30.3999 179.958 29.7 180.258 29.1 180.858C28.5 181.458 28.2 182.158 28.2 183.058C28.2 183.958 28.5 184.658 29.1 185.258Z" fill="#404040"/>
<path id="Vector_17" d="M44.9 180.158L43.7999 181.058C43.1999 180.358 42.4 179.958 41.4 179.958C40.5 179.958 39.8 180.258 39.2 180.858C38.6 181.458 38.2999 182.158 38.2999 183.058C38.2999 183.958 38.6 184.658 39.2 185.258C39.8 185.858 40.5 186.158 41.4 186.158C42.4 186.158 43.1999 185.758 43.7999 185.058L44.7999 185.958C43.9999 186.958 42.6999 187.558 41.2999 187.558C39.9999 187.558 38.9 187.158 38 186.258C37.1 185.358 36.7 184.358 36.7 183.058C36.7 181.758 37.1 180.658 38 179.858C38.9 178.958 39.9999 178.558 41.2999 178.558C42.8999 178.558 44 179.058 44.9 180.158Z" fill="#404040"/>
<path id="Vector_18" d="M46.2 187.357V178.657H49.5999C50.3999 178.657 50.9999 178.957 51.5999 179.457C52.0999 179.957 52.4 180.657 52.4 181.457C52.4 182.557 51.7999 183.557 50.7999 183.957L52.9 187.457H51.0999L49.2 184.357H47.7V187.457H46.2V187.357ZM47.7999 182.957H49.5C50.3 182.957 50.9 182.357 50.9 181.557C50.9 180.757 50.2999 180.157 49.5999 180.157H47.7999V182.957Z" fill="#404040"/>
<path id="Vector_19" d="M53.2 187.357L56.7999 178.657H58.0999L61.7 187.357H60.0999L59.4 185.657H55.5L54.7999 187.357H53.2ZM56 184.357H58.9L57.5 180.857L56 184.357Z" fill="#404040"/>
<path id="Vector_20" d="M63.5 187.357V180.057H61.1V178.657H67.4V180.057H65V187.357H63.5Z" fill="#404040"/>
<path id="Vector_21" d="M68.7 187.357V178.657H70.3V187.357H68.7Z" fill="#404040"/>
<path id="Vector_22" d="M72.7 184.857C73.1 185.757 73.9 186.157 74.9 186.157C76 186.157 76.4 185.557 76.4 185.057C76.4 184.657 76.3 184.457 75.9 184.157C75.5 183.957 75.3 183.757 74.6 183.557C73.8 183.257 73.3 183.057 72.8 182.657C72.3 182.257 72.1 181.657 72.1 180.957C72.1 180.257 72.4 179.657 72.9 179.257C73.4 178.857 74.1 178.657 74.8 178.657C76 178.657 76.9 179.157 77.5 180.057L76.4 180.857C76.1 180.357 75.6 180.057 74.9 180.057C74.2 180.057 73.7 180.457 73.7 180.957C73.7 181.357 73.8 181.457 74.1 181.657C74.2 181.757 74.6 181.857 74.7 181.957L75.1 182.157L75.6 182.357C76.4 182.657 77 183.057 77.4 183.457C77.8 183.857 77.9 184.357 77.9 185.057C77.9 186.557 76.8 187.657 74.9 187.657C73.3 187.657 72.1 186.957 71.6 185.657L72.7 184.857Z" fill="#404040"/>
<path id="Vector_23" d="M79.4 187.357V178.657H81V187.357H79.4Z" fill="#404040"/>
<path id="Vector_24" d="M82.9 187.357V178.657H84.3L88.9 184.657V178.657H90.4V187.357H89.1L84.4 181.257V187.357H82.9Z" fill="#404040"/>
<path id="Vector_25" d="M99.7004 179.858L98.7004 180.758C98.1004 180.158 97.4004 179.958 96.5004 179.958C95.6004 179.958 94.9004 180.258 94.3004 180.858C93.7004 181.458 93.4004 182.158 93.4004 183.058C93.4004 183.958 93.7004 184.658 94.3004 185.258C94.9004 185.858 95.6004 186.158 96.5004 186.158C97.3004 186.158 98.0004 185.858 98.6004 185.458V183.858H96.2004V182.458H100.1V185.958C99.3004 186.958 98.0004 187.558 96.5004 187.558C95.2004 187.558 94.1004 187.158 93.2004 186.258C92.3004 185.358 91.9004 184.358 91.9004 183.058C91.9004 181.758 92.3004 180.658 93.2004 179.858C94.1004 178.958 95.2004 178.558 96.5004 178.558C97.8004 178.558 98.8004 178.958 99.7004 179.858Z" fill="#404040"/>
<path id="Vector_26" d="M106.2 184.658V183.258H110.4V184.658H106.2Z" fill="#404040"/>
<path id="Vector_27" d="M123.9 179.858L122.9 180.758C122.3 180.158 121.6 179.958 120.7 179.958C119.8 179.958 119.1 180.258 118.5 180.858C117.9 181.458 117.6 182.158 117.6 183.058C117.6 183.958 117.9 184.658 118.5 185.258C119.1 185.858 119.8 186.158 120.7 186.158C121.5 186.158 122.2 185.858 122.8 185.458V183.858H120.4V182.458H124.3V185.958C123.5 186.958 122.2 187.558 120.7 187.558C119.4 187.558 118.3 187.158 117.4 186.258C116.5 185.358 116.1 184.358 116.1 183.058C116.1 181.758 116.5 180.658 117.4 179.858C118.3 178.958 119.4 178.558 120.7 178.558C122 178.558 123 178.958 123.9 179.858Z" fill="#404040"/>
<path id="Vector_28" d="M125.8 187.357V178.657H127.4V185.957H130.9V187.357H125.8Z" fill="#404040"/>
<path id="Vector_29" d="M132.7 186.258C131.8 185.358 131.4 184.358 131.4 183.058C131.4 181.758 131.8 180.758 132.7 179.858C133.6 178.958 134.7 178.558 136 178.558C137.3 178.558 138.4 178.958 139.3 179.858C140.2 180.758 140.6 181.758 140.6 183.058C140.6 184.358 140.2 185.358 139.3 186.258C138.4 187.158 137.3 187.558 136 187.558C134.6 187.558 133.6 187.158 132.7 186.258ZM133.7 185.258C134.3 185.858 135 186.158 135.9 186.158C136.8 186.158 137.5 185.858 138.1 185.258C138.7 184.658 139 183.958 139 183.058C139 182.158 138.7 181.458 138.1 180.858C137.5 180.258 136.8 179.958 135.9 179.958C135 179.958 134.3 180.258 133.7 180.858C133.1 181.458 132.8 182.158 132.8 183.058C132.9 183.958 133.2 184.658 133.7 185.258Z" fill="#404040"/>
<path id="Vector_30" d="M142 187.357V178.657H145.1C145.8 178.657 146.4 178.857 146.8 179.257C147.3 179.657 147.5 180.157 147.5 180.857C147.5 181.657 147.1 182.357 146.4 182.557C147.5 182.757 148.1 183.557 148.1 184.757C148.1 185.457 147.9 186.157 147.3 186.557C146.8 187.057 146.2 187.257 145.4 187.257H142V187.357ZM143.5 182.257H144.9C145.6 182.257 146 181.857 146 181.157C146 180.557 145.5 180.157 144.9 180.157H143.5V182.257ZM143.5 185.957H145.2C146 185.957 146.6 185.457 146.6 184.757C146.6 184.057 146 183.557 145.2 183.557H143.5V185.957Z" fill="#404040"/>
<path id="Vector_31" d="M148.8 187.357L152.4 178.657H153.7L157.3 187.357H155.7L155 185.657H151.1L150.4 187.357H148.8ZM151.6 184.357H154.5L153.1 180.857L151.6 184.357Z" fill="#404040"/>
<path id="Vector_32" d="M158.6 187.357V178.657H160.2V185.957H163.7V187.357H158.6Z" fill="#404040"/>
<path id="Vector_33" d="M169.4 187.357V178.657H174.9V180.057H170.9V182.157H174.6V183.557H170.9V185.957H175V187.357H169.4Z" fill="#404040"/>
<path id="Vector_34" d="M176.6 187.357V178.657H179.7C181.1 178.657 182.3 179.057 183.1 179.857C183.9 180.657 184.3 181.657 184.3 183.057C184.3 184.357 183.9 185.457 183.1 186.157C182.3 186.957 181.2 187.357 179.7 187.357H176.6ZM178.1 185.957H179.5C181.7 185.957 182.6 184.857 182.6 183.057C182.6 181.257 181.7 180.057 179.5 180.057H178.1V185.957Z" fill="#404040"/>
<path id="Vector_35" d="M185.6 178.758H187.2V183.958C187.2 185.458 187.9 186.158 189.2 186.158C190.4 186.158 191.2 185.458 191.2 183.958V178.758H192.8V184.158C192.8 185.258 192.5 186.158 191.8 186.758C191.1 187.358 190.3 187.658 189.3 187.658C188.3 187.658 187.4 187.358 186.8 186.758C186.1 186.158 185.8 185.258 185.8 184.158V178.758H185.6Z" fill="#404040"/>
<path id="Vector_36" d="M202.1 180.158L201 181.058C200.4 180.358 199.6 179.958 198.6 179.958C197.7 179.958 197 180.258 196.4 180.858C195.8 181.458 195.5 182.158 195.5 183.058C195.5 183.958 195.8 184.658 196.4 185.258C197 185.858 197.7 186.158 198.6 186.158C199.6 186.158 200.4 185.758 201 185.058L202 185.958C201.2 186.958 199.9 187.558 198.5 187.558C197.2 187.558 196.1 187.158 195.2 186.258C194.3 185.358 193.9 184.358 193.9 183.058C193.9 181.758 194.3 180.658 195.2 179.858C196.1 178.958 197.2 178.558 198.5 178.558C200.1 178.558 201.2 179.058 202.1 180.158Z" fill="#404040"/>
<path id="Vector_37" d="M202.7 187.357L206.3 178.657H207.6L211.2 187.357H209.6L208.9 185.657H205L204.3 187.357H202.7ZM205.6 184.357H208.5L207.1 180.857L205.6 184.357Z" fill="#404040"/>
<path id="Vector_38" d="M213.1 187.357V180.057H210.7V178.657H217V180.057H214.6V187.357H213.1Z" fill="#404040"/>
<path id="Vector_39" d="M218.3 187.357V178.657H219.9V187.357H218.3Z" fill="#404040"/>
<path id="Vector_40" d="M222.7 186.258C221.8 185.358 221.4 184.358 221.4 183.058C221.4 181.758 221.8 180.758 222.7 179.858C223.6 178.958 224.7 178.558 226 178.558C227.3 178.558 228.4 178.958 229.3 179.858C230.2 180.758 230.6 181.758 230.6 183.058C230.6 184.358 230.2 185.358 229.3 186.258C228.4 187.158 227.3 187.558 226 187.558C224.7 187.558 223.6 187.158 222.7 186.258ZM223.8 185.258C224.4 185.858 225.1 186.158 226 186.158C226.9 186.158 227.6 185.858 228.2 185.258C228.8 184.658 229.1 183.958 229.1 183.058C229.1 182.158 228.8 181.458 228.2 180.858C227.6 180.258 226.9 179.958 226 179.958C225.1 179.958 224.4 180.258 223.8 180.858C223.2 181.458 222.9 182.158 222.9 183.058C222.9 183.958 223.2 184.658 223.8 185.258Z" fill="#404040"/>
<path id="Vector_41" d="M232 187.357V178.657H233.4L238 184.657V178.657H239.5V187.357H238.2L233.5 181.257V187.357H232Z" fill="#404040"/>
</g>
</g>
</svg>
