<svg width="40" height="40" viewBox="0 0 40 40" fill="none" xmlns="http://www.w3.org/2000/svg">
<rect width="40" height="40" rx="10" fill="#E95C40" fill-opacity="0.15"/>
<g clip-path="url(#clip0_1_125484)">
<path d="M26.6665 16.6667C25.7824 16.6667 24.9346 16.3155 24.3094 15.6904C23.6843 15.0652 23.3331 14.2174 23.3331 13.3333C23.3331 12.4493 23.6843 11.6014 24.3094 10.9763C24.9346 10.3512 25.7824 10 26.6665 10C27.5505 10 28.3984 10.3512 29.0235 10.9763C29.6486 11.6014 29.9998 12.4493 29.9998 13.3333C29.9998 14.2174 29.6486 15.0652 29.0235 15.6904C28.3984 16.3155 27.5505 16.6667 26.6665 16.6667ZM27.8765 30H20.4906C20.117 30.0033 19.7491 29.9079 19.4242 29.7236C19.0992 29.5392 18.8286 29.2724 18.6398 28.95C18.4547 28.6393 18.355 28.2853 18.3508 27.9237C18.3465 27.5621 18.4379 27.2058 18.6156 26.8908L22.3123 20.2583C22.5026 19.9296 22.7761 19.6567 23.1052 19.467C23.4342 19.2773 23.8074 19.1774 24.1873 19.1774C24.5671 19.1774 24.9403 19.2773 25.2694 19.467C25.5985 19.6567 25.8719 19.9296 26.0623 20.2583L29.7498 26.8858C29.9279 27.2012 30.0195 27.5581 30.0154 27.9202C30.0113 28.2824 29.9116 28.637 29.7265 28.9483C29.5377 29.2707 29.2673 29.5377 28.9425 29.7223C28.6177 29.9069 28.25 30.0027 27.8765 30ZM17.2031 29.795C16.8703 29.2348 16.691 28.5967 16.6832 27.9451C16.6755 27.2935 16.8395 26.6513 17.159 26.0833L20.8565 19.45C21.1584 18.9075 21.5898 18.448 22.1123 18.1125L20.7865 15.6292C20.5476 15.1869 20.1937 14.8174 19.762 14.5599C19.3303 14.3024 18.837 14.1664 18.3344 14.1664C17.8317 14.1664 17.3384 14.3024 16.9068 14.5599C16.4751 14.8174 16.1211 15.1869 15.8823 15.6292L10.3381 25.8792C10.1082 26.3043 9.99258 26.7819 10.0025 27.2651C10.0125 27.7483 10.1477 28.2207 10.395 28.636C10.6422 29.0513 10.9931 29.3953 11.4131 29.6344C11.8332 29.8735 12.3081 29.9995 12.7915 30H17.3331C17.2873 29.9333 17.244 29.865 17.2031 29.795Z" fill="#E95C40"/>
</g>
<defs>
<clipPath id="clip0_1_125484">
<rect width="20" height="20" fill="white" transform="translate(10 10)"/>
</clipPath>
</defs>
</svg>
