<svg width="40" height="40" viewBox="0 0 40 40" fill="none" xmlns="http://www.w3.org/2000/svg">
<rect width="40" height="40" rx="10" fill="#E95C40" fill-opacity="0.15"/>
<g clip-path="url(#clip0_1_125472)">
<path d="M30 17.5C29.8921 18.1051 29.6516 18.6788 29.2958 19.18L21.9767 29.03C21.7446 29.3298 21.4474 29.5729 21.1076 29.7409C20.7677 29.9089 20.3941 29.9974 20.015 29.9997C19.636 30.0021 19.2613 29.9181 18.9194 29.7543C18.5775 29.5905 18.2774 29.3511 18.0417 29.0542L10.6867 19C10.3742 18.5473 10.1537 18.0377 10.0375 17.5H15.2608L19.2217 27.7992C19.2819 27.9567 19.3886 28.0923 19.5276 28.1879C19.6666 28.2836 19.8313 28.3348 20 28.3348C20.1687 28.3348 20.3334 28.2836 20.4724 28.1879C20.6114 28.0923 20.7181 27.9567 20.7783 27.7992L24.7392 17.5H30ZM24.75 15.8333H29.9642C29.8374 15.2695 29.5941 14.7384 29.25 14.2742L27.1183 11.3958C26.8096 10.9644 26.4026 10.6127 25.9308 10.37C25.4591 10.1272 24.9363 10.0004 24.4058 10H22.5725L24.75 15.8333ZM19.2567 10L17.0408 15.8333H22.9675L20.7958 10H19.2567ZM15.2583 15.8333L17.4733 10H15.5383C15.0123 9.99948 14.4937 10.1238 14.025 10.3627C13.5564 10.6015 13.1511 10.9482 12.8425 11.3742L10.7817 14.0758C10.3873 14.5925 10.1196 15.1945 10 15.8333H15.2583ZM22.9533 17.5H17.0467L20 25.1783L22.9533 17.5Z" fill="#E95C40"/>
</g>
<defs>
<clipPath id="clip0_1_125472">
<rect width="20" height="20" fill="white" transform="translate(10 10)"/>
</clipPath>
</defs>
</svg>
