<svg width="4" height="8" viewBox="0 0 4 8" fill="none" xmlns="http://www.w3.org/2000/svg">
<path id="Vector" d="M0.164947 0.166149C0.112681 0.219265 0.0711958 0.282458 0.0428855 0.352084C0.0145751 0.42171 -3.27993e-07 0.49639 -3.24696e-07 0.571817C-3.21399e-07 0.647244 0.0145751 0.721924 0.0428855 0.79155C0.0711959 0.861176 0.112681 0.924369 0.164947 0.977485L2.71891 3.59433C2.77118 3.64745 2.81266 3.71064 2.84097 3.78027C2.86928 3.84989 2.88386 3.92457 2.88386 4C2.88386 4.07543 2.86928 4.15011 2.84097 4.21973C2.81266 4.28936 2.77118 4.35255 2.71891 4.40567L0.164947 7.02251C0.112681 7.07563 0.0711961 7.13882 0.0428858 7.20845C0.0145754 7.27808 -2.82919e-08 7.35276 -2.49949e-08 7.42818C-2.16979e-08 7.50361 0.0145754 7.57829 0.0428858 7.64792C0.0711962 7.71754 0.112681 7.78074 0.164947 7.83385C0.269427 7.94027 0.41076 8 0.55808 8C0.705399 8 0.846732 7.94027 0.951212 7.83385L3.51075 5.21129C3.82403 4.8899 4 4.45424 4 4C4 3.54576 3.82403 3.1101 3.51075 2.78871L0.951211 0.166149C0.846732 0.0597319 0.705398 -3.0834e-08 0.558079 -2.43944e-08C0.41076 -1.79549e-08 0.269427 0.0597319 0.164947 0.166149Z" fill="#E95C40"/>
</svg>
