<svg width="106" height="39" viewBox="0 0 106 39" fill="none" xmlns="http://www.w3.org/2000/svg">
<g id="Group 24">
<rect id="Rectangle 210" x="0.5" y="0.5" width="105" height="38" rx="19" stroke="black"/>
<g id="Group 23">
<path id="Vector" d="M38.721 19.6832C38.7096 17.7159 39.5937 16.2333 41.3791 15.1401C40.3805 13.6978 38.8698 12.9046 36.8784 12.7517C34.9928 12.6017 32.9299 13.8593 32.1745 13.8593C31.3763 13.8593 29.5508 12.8036 28.1144 12.8036C25.1502 12.8498 22 15.1862 22 19.9399C22 21.3446 22.2546 22.7955 22.7639 24.2897C23.4449 26.2569 25.8999 31.0769 28.4607 30.9991C29.7997 30.9673 30.7468 30.0414 32.4893 30.0414C34.1803 30.0414 35.0558 30.9991 36.5494 30.9991C39.133 30.9616 41.3534 26.58 42 24.607C38.535 22.96 38.721 19.7841 38.721 19.6832ZM35.7139 10.8854C37.1645 9.14895 37.0329 7.56825 36.99 7C35.7082 7.075 34.226 7.87977 33.382 8.86916C32.4521 9.93066 31.9056 11.2431 32.0229 12.7229C33.4077 12.8296 34.6724 12.1113 35.7139 10.8854Z" fill="black"/>
<path id="Vector_2" d="M62 8.47282V29.5261C62.0001 29.5718 62.0136 29.6164 62.0387 29.6544C62.0637 29.6923 62.0993 29.722 62.1409 29.7395C62.1826 29.7571 62.2284 29.7618 62.2726 29.7531C62.3169 29.7444 62.3577 29.7226 62.3898 29.6906L73.2116 19L62.3898 8.30836C62.3577 8.27629 62.3169 8.25454 62.2726 8.24583C62.2284 8.23712 62.1826 8.24184 62.1409 8.25941C62.0993 8.27697 62.0637 8.30659 62.0387 8.34456C62.0136 8.38252 62.0001 8.42714 62 8.47282ZM77.7491 14.6072L64.1799 7.03444L64.1715 7.02962C63.9377 6.90105 63.7156 7.22141 63.907 7.40783L74.5438 17.7106L77.7491 14.6072ZM63.9081 30.5922C63.7156 30.7786 63.9377 31.0989 64.1725 30.9704L64.181 30.9656L77.7491 23.3928L74.5438 20.2884L63.9081 30.5922ZM83.227 17.6607L79.4377 15.5468L75.8749 19L79.4377 22.4516L83.227 20.3393C84.2577 19.7623 84.2577 18.2377 83.227 17.6607Z" fill="black"/>
</g>
</g>
</svg>
