<svg width="16" height="17" viewBox="0 0 16 17" fill="none" xmlns="http://www.w3.org/2000/svg">
<g id="loupe 1" clip-path="url(#clip0_1612_2642)">
<g id="Group">
<g id="Group_2">
<path id="Vector" d="M7.04606 0.5C3.16097 0.5 0 3.66097 0 7.54606C0 11.4314 3.16097 14.5921 7.04606 14.5921C10.9314 14.5921 14.0921 11.4314 14.0921 7.54606C14.0921 3.66097 10.9314 0.5 7.04606 0.5ZM7.04606 13.2913C3.87816 13.2913 1.30081 10.714 1.30081 7.54609C1.30081 4.37819 3.87816 1.80081 7.04606 1.80081C10.214 1.80081 12.7913 4.37816 12.7913 7.54606C12.7913 10.714 10.214 13.2913 7.04606 13.2913Z" fill="black"/>
</g>
</g>
<g id="Group_3">
<g id="Group_4">
<path id="Vector_2" d="M15.8094 15.3898L12.0804 11.6608C11.8263 11.4067 11.4148 11.4067 11.1608 11.6608C10.9067 11.9146 10.9067 12.3266 11.1608 12.5804L14.8898 16.3094C15.0168 16.4365 15.1831 16.5 15.3496 16.5C15.5159 16.5 15.6824 16.4365 15.8094 16.3094C16.0635 16.0556 16.0635 15.6436 15.8094 15.3898Z" fill="black"/>
</g>
</g>
</g>
<defs>
<clipPath id="clip0_1612_2642">
<rect width="16" height="16" fill="white" transform="translate(0 0.5)"/>
</clipPath>
</defs>
</svg>
