<svg width="35" height="35" viewBox="0 0 35 35" fill="none" xmlns="http://www.w3.org/2000/svg">
<g clip-path="url(#clip0_402_11714)">
<path d="M19.132 3.00457L11.0529 11.0837C10.5133 11.6233 10.207 12.3671 10.207 13.14V27.7087C10.207 29.3129 11.5195 30.6254 13.1237 30.6254H26.2487C27.4154 30.6254 28.4654 29.9254 28.932 28.8608L33.6862 17.7629C34.9112 14.8754 32.7966 11.6671 29.6612 11.6671H21.4216L22.807 4.9879C22.9529 4.25874 22.7341 3.51499 22.2091 2.98999C21.3487 2.14415 19.9779 2.14415 19.132 3.00457ZM4.3737 30.6254C5.97786 30.6254 7.29036 29.3129 7.29036 27.7087V16.0421C7.29036 14.4379 5.97786 13.1254 4.3737 13.1254C2.76953 13.1254 1.45703 14.4379 1.45703 16.0421V27.7087C1.45703 29.3129 2.76953 30.6254 4.3737 30.6254Z" fill="#E95C40"/>
</g>
<defs>
<clipPath id="clip0_402_11714">
<rect width="35" height="35" fill="white"/>
</clipPath>
</defs>
</svg>
