<svg width="14" height="12" viewBox="0 0 14 12" fill="none" xmlns="http://www.w3.org/2000/svg">
<path d="M12.5508 2.80664C13.0977 2.39648 13.5898 1.9043 13.9727 1.33008C13.4805 1.54883 12.9062 1.71289 12.332 1.76758C12.9336 1.41211 13.3711 0.865234 13.5898 0.181641C13.043 0.509766 12.4141 0.755859 11.7852 0.892578C11.2383 0.318359 10.5 -0.00976562 9.67969 -0.00976562C8.09375 -0.00976562 6.80859 1.27539 6.80859 2.86133C6.80859 3.08008 6.83594 3.29883 6.89062 3.51758C4.51172 3.38086 2.37891 2.23242 0.957031 0.509766C0.710938 0.919922 0.574219 1.41211 0.574219 1.95898C0.574219 2.94336 1.06641 3.81836 1.85938 4.33789C1.39453 4.31055 0.929688 4.20117 0.546875 3.98242V4.00977C0.546875 5.4043 1.53125 6.55273 2.84375 6.82617C2.625 6.88086 2.35156 6.93555 2.10547 6.93555C1.91406 6.93555 1.75 6.9082 1.55859 6.88086C1.91406 8.0293 2.98047 8.84961 4.23828 8.87695C3.25391 9.64258 2.02344 10.1074 0.683594 10.1074C0.4375 10.1074 0.21875 10.0801 0 10.0527C1.25781 10.873 2.76172 11.3379 4.40234 11.3379C9.67969 11.3379 12.5508 6.99023 12.5508 3.18945C12.5508 3.05273 12.5508 2.94336 12.5508 2.80664Z" fill="#E95C40"/>
</svg>
