<svg width="48" height="48" viewBox="0 0 48 48" fill="none" xmlns="http://www.w3.org/2000/svg">
<g id="user-01">
<path id="Icon" d="M40 42C40 39.2089 40 37.8133 39.6555 36.6777C38.8799 34.1209 36.8791 32.1201 34.3223 31.3445C33.1867 31 31.7911 31 29 31H19C16.2089 31 14.8133 31 13.6777 31.3445C11.1209 32.1201 9.12008 34.1209 8.34448 36.6777C8 37.8133 8 39.2089 8 42M33 15C33 19.9706 28.9706 24 24 24C19.0294 24 15 19.9706 15 15C15 10.0294 19.0294 6 24 6C28.9706 6 33 10.0294 33 15Z" stroke="#475467" stroke-width="2.66667" stroke-linecap="round" stroke-linejoin="round"/>
</g>
</svg>
