<svg width="15" height="16" viewBox="0 0 15 16" fill="none" xmlns="http://www.w3.org/2000/svg">
<g clip-path="url(#clip0_1687_57)">
<path d="M7.5 0.5C6.01664 0.5 4.5666 0.939867 3.33323 1.76398C2.09986 2.58809 1.13856 3.75943 0.570907 5.12987C0.00324965 6.50032 -0.145275 8.00832 0.144114 9.46318C0.433503 10.918 1.14781 12.2544 2.1967 13.3033C3.2456 14.3522 4.58197 15.0665 6.03683 15.3559C7.49168 15.6453 8.99968 15.4968 10.3701 14.9291C11.7406 14.3614 12.9119 13.4001 13.736 12.1668C14.5601 10.9334 15 9.48336 15 8C14.9979 6.01154 14.207 4.10513 12.8009 2.69907C11.3949 1.29302 9.48847 0.502151 7.5 0.5V0.5ZM12.9044 4.875H10.8913C10.4406 3.83062 9.84724 2.8538 9.12813 1.9725C10.7197 2.40558 12.0765 3.44842 12.9044 4.875ZM10.3125 8C10.3074 8.63634 10.2071 9.26833 10.015 9.875H4.985C4.79291 9.26833 4.69263 8.63634 4.6875 8C4.69263 7.36366 4.79291 6.73167 4.985 6.125H10.015C10.2071 6.73167 10.3074 7.36366 10.3125 8ZM5.48625 11.125H9.51375C8.98328 12.1723 8.3051 13.138 7.5 13.9925C6.69461 13.1383 6.0164 12.1725 5.48625 11.125ZM5.48625 4.875C6.01673 3.82767 6.69491 2.86197 7.5 2.0075C8.3054 2.86173 8.9836 3.82747 9.51375 4.875H5.48625ZM5.875 1.9725C5.15479 2.85362 4.56037 3.83044 4.10875 4.875H2.09563C2.92429 3.44777 4.28229 2.40485 5.875 1.9725ZM1.53813 6.125H3.6875C3.52548 6.73697 3.44148 7.36696 3.4375 8C3.44148 8.63304 3.52548 9.26304 3.6875 9.875H1.53813C1.15397 8.65452 1.15397 7.34548 1.53813 6.125ZM2.09563 11.125H4.10875C4.56037 12.1696 5.15479 13.1464 5.875 14.0275C4.28229 13.5952 2.92429 12.5522 2.09563 11.125ZM9.12813 14.0275C9.84724 13.1462 10.4406 12.1694 10.8913 11.125H12.9044C12.0765 12.5516 10.7197 13.5944 9.12813 14.0275ZM13.4619 9.875H11.3125C11.4745 9.26304 11.5585 8.63304 11.5625 8C11.5585 7.36696 11.4745 6.73697 11.3125 6.125H13.4606C13.8448 7.34548 13.8448 8.65452 13.4606 9.875H13.4619Z" fill="#999999"/>
</g>
<defs>
<clipPath id="clip0_1687_57">
<rect width="15" height="15" fill="white" transform="translate(0 0.5)"/>
</clipPath>
</defs>
</svg>
