<svg width="80" height="80" viewBox="0 0 80 80" fill="none" xmlns="http://www.w3.org/2000/svg">
<g id="annotation-check">
<path id="Icon" d="M30 36.6667L36.6667 43.3333L51.6667 28.3333M33 64L37.8667 70.4889C38.5904 71.4539 38.9523 71.9363 39.3959 72.1089C39.7845 72.26 40.2155 72.26 40.6041 72.1089C41.0477 71.9363 41.4096 71.4539 42.1333 70.4889L47 64C47.9772 62.6971 48.4657 62.0457 49.0617 61.5483C49.8563 60.8852 50.7944 60.4161 51.8016 60.1783C52.5571 60 53.3714 60 55 60C59.6594 60 61.9891 60 63.8268 59.2388C66.2771 58.2239 68.2239 56.2771 69.2388 53.8268C70 51.9891 70 49.6594 70 45V26C70 20.3995 70 17.5992 68.9101 15.4601C67.9513 13.5785 66.4215 12.0487 64.5399 11.0899C62.4008 10 59.6005 10 54 10H26C20.3995 10 17.5992 10 15.4601 11.0899C13.5785 12.0487 12.0487 13.5785 11.0899 15.4601C10 17.5992 10 20.3995 10 26V45C10 49.6594 10 51.9891 10.7612 53.8268C11.7761 56.2771 13.7229 58.2239 16.1732 59.2388C18.0109 60 20.3406 60 25 60C26.6286 60 27.4429 60 28.1984 60.1783C29.2056 60.4161 30.1437 60.8852 30.9383 61.5483C31.5343 62.0457 32.0228 62.6971 33 64Z" stroke="#8D000E" stroke-width="5" stroke-linecap="round" stroke-linejoin="round"/>
</g>
</svg>
