<svg width="146" height="54" viewBox="0 0 146 54" fill="none" xmlns="http://www.w3.org/2000/svg">
<rect x="0.5" width="145" height="54" rx="10" fill="#1877F2"/>
<rect width="24" height="24" transform="translate(15.5 15)" fill="#1877F2"/>
<path d="M39 27.0694C39 20.7181 33.8513 15.5694 27.5 15.5694C21.1487 15.5694 16 20.7181 16 27.0694C16 32.8094 20.2054 37.567 25.7031 38.4297V30.3936H22.7832V27.0694H25.7031V24.5358C25.7031 21.6536 27.42 20.0616 30.0468 20.0616C31.305 20.0616 32.6211 20.2862 32.6211 20.2862V23.1163H31.171C29.7424 23.1163 29.2969 24.0027 29.2969 24.9122V27.0694H32.4863L31.9765 30.3936H29.2969V38.4297C34.7946 37.567 39 32.8094 39 27.0694Z" fill="white"/>
<path d="M55.6477 32.5V20.8636H63.1023V22.6307H57.7557V25.7898H62.5909V27.5568H57.7557V32.5H55.6477ZM67.3651 32.6761C66.812 32.6761 66.3139 32.5777 65.8707 32.3807C65.4313 32.1799 65.0829 31.8845 64.8253 31.4943C64.5715 31.1042 64.4446 30.6231 64.4446 30.0511C64.4446 29.5587 64.5355 29.1515 64.7173 28.8295C64.8991 28.5076 65.1473 28.25 65.4616 28.0568C65.776 27.8636 66.1302 27.7178 66.5241 27.6193C66.9219 27.517 67.3329 27.4432 67.7571 27.3977C68.2685 27.3447 68.6832 27.2973 69.0014 27.2557C69.3196 27.2102 69.5507 27.142 69.6946 27.0511C69.8423 26.9564 69.9162 26.8106 69.9162 26.6136V26.5795C69.9162 26.1515 69.7893 25.8201 69.5355 25.5852C69.2817 25.3504 68.9162 25.233 68.4389 25.233C67.9351 25.233 67.5355 25.3428 67.2401 25.5625C66.9484 25.7822 66.7514 26.0417 66.6491 26.3409L64.7287 26.0682C64.8802 25.5379 65.1302 25.0947 65.4787 24.7386C65.8272 24.3788 66.2533 24.1098 66.7571 23.9318C67.2609 23.75 67.8177 23.6591 68.4276 23.6591C68.848 23.6591 69.2666 23.7083 69.6832 23.8068C70.0999 23.9053 70.4806 24.0682 70.8253 24.2955C71.17 24.5189 71.4465 24.8239 71.6548 25.2102C71.867 25.5966 71.973 26.0795 71.973 26.6591V32.5H69.9957V31.3011H69.9276C69.8026 31.5436 69.6264 31.7708 69.3991 31.983C69.1757 32.1913 68.8935 32.3598 68.5526 32.4886C68.2154 32.6136 67.8196 32.6761 67.3651 32.6761ZM67.8991 31.1648C68.312 31.1648 68.67 31.0833 68.973 30.9205C69.276 30.7538 69.509 30.5341 69.6719 30.2614C69.8385 29.9886 69.9219 29.6913 69.9219 29.3693V28.3409C69.8575 28.3939 69.7476 28.4432 69.5923 28.4886C69.4408 28.5341 69.2704 28.5739 69.081 28.608C68.8916 28.642 68.7041 28.6723 68.5185 28.6989C68.3329 28.7254 68.1719 28.7481 68.0355 28.767C67.7287 28.8087 67.4541 28.8769 67.2116 28.9716C66.9692 29.0663 66.7779 29.1989 66.6378 29.3693C66.4976 29.536 66.4276 29.7519 66.4276 30.017C66.4276 30.3958 66.5658 30.6818 66.8423 30.875C67.1188 31.0682 67.4711 31.1648 67.8991 31.1648ZM77.848 32.6705C76.9768 32.6705 76.2287 32.4792 75.6037 32.0966C74.9825 31.714 74.5033 31.1856 74.1662 30.5114C73.8329 29.8333 73.6662 29.053 73.6662 28.1705C73.6662 27.2841 73.8366 26.5019 74.1776 25.8239C74.5185 25.142 74.9995 24.6117 75.6207 24.233C76.2457 23.8504 76.9844 23.6591 77.8366 23.6591C78.545 23.6591 79.1719 23.7898 79.7173 24.0511C80.2666 24.3087 80.7041 24.6742 81.0298 25.1477C81.3556 25.6174 81.5412 26.1667 81.5866 26.7955H79.6207C79.5412 26.375 79.3518 26.0246 79.0526 25.7443C78.7571 25.4602 78.3613 25.3182 77.8651 25.3182C77.4446 25.3182 77.0753 25.4318 76.7571 25.6591C76.4389 25.8826 76.1908 26.2045 76.0128 26.625C75.8385 27.0455 75.7514 27.5492 75.7514 28.1364C75.7514 28.7311 75.8385 29.2424 76.0128 29.6705C76.187 30.0947 76.4313 30.4223 76.7457 30.6534C77.0639 30.8807 77.437 30.9943 77.8651 30.9943C78.1681 30.9943 78.4389 30.9375 78.6776 30.8239C78.92 30.7064 79.1226 30.5379 79.2855 30.3182C79.4484 30.0985 79.5601 29.8314 79.6207 29.517H81.5866C81.5374 30.1345 81.3556 30.6818 81.0412 31.1591C80.7268 31.6326 80.2988 32.0038 79.7571 32.2727C79.2154 32.5379 78.5791 32.6705 77.848 32.6705ZM87.1392 32.6705C86.2642 32.6705 85.5085 32.4886 84.8722 32.125C84.2396 31.7576 83.7528 31.2386 83.4119 30.5682C83.071 29.8939 82.9006 29.1004 82.9006 28.1875C82.9006 27.2898 83.071 26.5019 83.4119 25.8239C83.7566 25.142 84.2377 24.6117 84.8551 24.233C85.4725 23.8504 86.1979 23.6591 87.0312 23.6591C87.5691 23.6591 88.0767 23.7462 88.554 23.9205C89.035 24.0909 89.4593 24.3561 89.8267 24.7159C90.1979 25.0758 90.4896 25.5341 90.7017 26.0909C90.9138 26.6439 91.0199 27.303 91.0199 28.0682V28.6989H83.8665V27.3125H89.0483C89.0445 26.9186 88.9593 26.5682 88.7926 26.2614C88.6259 25.9508 88.393 25.7064 88.0938 25.5284C87.7983 25.3504 87.4536 25.2614 87.0597 25.2614C86.6392 25.2614 86.2699 25.3636 85.9517 25.5682C85.6335 25.7689 85.3854 26.0341 85.2074 26.3636C85.0331 26.6894 84.9441 27.0473 84.9403 27.4375V28.6477C84.9403 29.1553 85.0331 29.5909 85.2188 29.9545C85.4044 30.3144 85.6638 30.5909 85.9972 30.7841C86.3305 30.9735 86.7206 31.0682 87.1676 31.0682C87.4669 31.0682 87.7377 31.0265 87.9801 30.9432C88.2225 30.8561 88.4328 30.7292 88.6108 30.5625C88.7888 30.3958 88.9233 30.1894 89.0142 29.9432L90.9347 30.1591C90.8134 30.6667 90.5824 31.1098 90.2415 31.4886C89.9044 31.8636 89.4725 32.1553 88.946 32.3636C88.4195 32.5682 87.8172 32.6705 87.1392 32.6705ZM92.8509 32.5V20.8636H94.9077V25.2159H94.9929C95.099 25.0038 95.2486 24.7784 95.4418 24.5398C95.6349 24.2973 95.8963 24.0909 96.2259 23.9205C96.5554 23.7462 96.9759 23.6591 97.4872 23.6591C98.1615 23.6591 98.7694 23.8314 99.3111 24.1761C99.8565 24.517 100.288 25.0227 100.607 25.6932C100.929 26.3598 101.089 27.178 101.089 28.1477C101.089 29.1061 100.932 29.9205 100.618 30.5909C100.304 31.2614 99.8755 31.7727 99.3338 32.125C98.7921 32.4773 98.1785 32.6534 97.4929 32.6534C96.9929 32.6534 96.5781 32.5701 96.2486 32.4034C95.919 32.2367 95.6539 32.036 95.4531 31.8011C95.2562 31.5625 95.1027 31.3371 94.9929 31.125H94.8736V32.5H92.8509ZM94.8679 28.1364C94.8679 28.7008 94.9474 29.1951 95.1065 29.6193C95.2694 30.0436 95.5024 30.375 95.8054 30.6136C96.1122 30.8485 96.4834 30.9659 96.919 30.9659C97.3736 30.9659 97.7543 30.8447 98.0611 30.6023C98.3679 30.3561 98.599 30.0208 98.7543 29.5966C98.9134 29.1686 98.9929 28.6818 98.9929 28.1364C98.9929 27.5947 98.9152 27.1136 98.7599 26.6932C98.6046 26.2727 98.3736 25.9432 98.0668 25.7045C97.7599 25.4659 97.3774 25.3466 96.919 25.3466C96.4796 25.3466 96.1065 25.4621 95.7997 25.6932C95.4929 25.9242 95.2599 26.2481 95.1009 26.6648C94.9455 27.0814 94.8679 27.572 94.8679 28.1364ZM106.645 32.6705C105.793 32.6705 105.054 32.483 104.429 32.108C103.804 31.733 103.319 31.2083 102.974 30.5341C102.634 29.8598 102.463 29.072 102.463 28.1705C102.463 27.2689 102.634 26.4792 102.974 25.8011C103.319 25.1231 103.804 24.5966 104.429 24.2216C105.054 23.8466 105.793 23.6591 106.645 23.6591C107.497 23.6591 108.236 23.8466 108.861 24.2216C109.486 24.5966 109.969 25.1231 110.31 25.8011C110.654 26.4792 110.827 27.2689 110.827 28.1705C110.827 29.072 110.654 29.8598 110.31 30.5341C109.969 31.2083 109.486 31.733 108.861 32.108C108.236 32.483 107.497 32.6705 106.645 32.6705ZM106.656 31.0227C107.118 31.0227 107.505 30.8958 107.815 30.642C108.126 30.3845 108.357 30.0398 108.509 29.608C108.664 29.1761 108.741 28.6951 108.741 28.1648C108.741 27.6307 108.664 27.1477 108.509 26.7159C108.357 26.2803 108.126 25.9337 107.815 25.6761C107.505 25.4186 107.118 25.2898 106.656 25.2898C106.183 25.2898 105.789 25.4186 105.474 25.6761C105.164 25.9337 104.931 26.2803 104.776 26.7159C104.624 27.1477 104.548 27.6307 104.548 28.1648C104.548 28.6951 104.624 29.1761 104.776 29.608C104.931 30.0398 105.164 30.3845 105.474 30.642C105.789 30.8958 106.183 31.0227 106.656 31.0227ZM116.379 32.6705C115.527 32.6705 114.788 32.483 114.163 32.108C113.538 31.733 113.054 31.2083 112.709 30.5341C112.368 29.8598 112.197 29.072 112.197 28.1705C112.197 27.2689 112.368 26.4792 112.709 25.8011C113.054 25.1231 113.538 24.5966 114.163 24.2216C114.788 23.8466 115.527 23.6591 116.379 23.6591C117.232 23.6591 117.97 23.8466 118.595 24.2216C119.22 24.5966 119.703 25.1231 120.044 25.8011C120.389 26.4792 120.561 27.2689 120.561 28.1705C120.561 29.072 120.389 29.8598 120.044 30.5341C119.703 31.2083 119.22 31.733 118.595 32.108C117.97 32.483 117.232 32.6705 116.379 32.6705ZM116.391 31.0227C116.853 31.0227 117.239 30.8958 117.55 30.642C117.86 30.3845 118.091 30.0398 118.243 29.608C118.398 29.1761 118.476 28.6951 118.476 28.1648C118.476 27.6307 118.398 27.1477 118.243 26.7159C118.091 26.2803 117.86 25.9337 117.55 25.6761C117.239 25.4186 116.853 25.2898 116.391 25.2898C115.917 25.2898 115.523 25.4186 115.209 25.6761C114.898 25.9337 114.665 26.2803 114.51 26.7159C114.358 27.1477 114.283 27.6307 114.283 28.1648C114.283 28.6951 114.358 29.1761 114.51 29.608C114.665 30.0398 114.898 30.3845 115.209 30.642C115.523 30.8958 115.917 31.0227 116.391 31.0227ZM124.182 29.7614L124.176 27.2784H124.506L127.642 23.7727H130.045L126.188 28.0682H125.761L124.182 29.7614ZM122.307 32.5V20.8636H124.364V32.5H122.307ZM127.784 32.5L124.943 28.5284L126.33 27.0795L130.244 32.5H127.784Z" fill="white"/>
</svg>
