<svg width="149" height="54" viewBox="0 0 149 54" fill="none" xmlns="http://www.w3.org/2000/svg">
<rect width="149" height="54" rx="10" fill="black"/>
<rect x="17.5" width="115" height="54" rx="10" fill="black"/>
<rect width="24" height="24" transform="translate(32.5 15)" fill="black"/>
<path d="M53.7798 33.424C53.432 34.2275 53.0203 34.9672 52.5433 35.6472C51.893 36.5743 51.3606 37.216 50.9503 37.5724C50.3143 38.1573 49.6329 38.4568 48.9031 38.4739C48.3792 38.4739 47.7475 38.3248 47.0121 38.0224C46.2742 37.7214 45.5962 37.5724 44.9762 37.5724C44.326 37.5724 43.6286 37.7214 42.8827 38.0224C42.1356 38.3248 41.5338 38.4824 41.0737 38.498C40.3739 38.5278 39.6764 38.2197 38.9802 37.5724C38.5358 37.1848 37.98 36.5204 37.3142 35.5791C36.5998 34.5739 36.0124 33.4084 35.5523 32.0795C35.0595 30.6442 34.8125 29.2543 34.8125 27.9087C34.8125 26.3673 35.1456 25.0379 35.8127 23.9238C36.337 23.029 37.0345 22.3231 37.9075 21.8049C38.7804 21.2867 39.7237 21.0227 40.7395 21.0058C41.2953 21.0058 42.0242 21.1777 42.93 21.5156C43.8332 21.8546 44.4131 22.0265 44.6674 22.0265C44.8575 22.0265 45.5018 21.8255 46.594 21.4247C47.6268 21.0531 48.4985 20.8992 49.2126 20.9598C51.1477 21.1159 52.6015 21.8788 53.5683 23.253C51.8377 24.3016 50.9816 25.7703 50.9986 27.6544C51.0142 29.122 51.5466 30.3432 52.5929 31.3129C53.0671 31.7629 53.5967 32.1107 54.1859 32.3578C54.0581 32.7283 53.9232 33.0832 53.7798 33.424ZM49.3418 15.9601C49.3418 17.1104 48.9216 18.1844 48.0839 19.1785C47.0731 20.3602 45.8505 21.0431 44.5246 20.9354C44.5077 20.7974 44.4979 20.6521 44.4979 20.4995C44.4979 19.3953 44.9786 18.2135 45.8323 17.2472C46.2585 16.758 46.8005 16.3512 47.4579 16.0267C48.1138 15.7071 48.7342 15.5303 49.3177 15.5C49.3347 15.6538 49.3418 15.8076 49.3418 15.9601V15.9601Z" fill="white"/>
<path d="M74.142 32.5H71.892L75.9886 20.8636H78.5909L82.6932 32.5H80.4432L77.3352 23.25H77.2443L74.142 32.5ZM74.2159 27.9375H80.3523V29.6307H74.2159V27.9375ZM84.1349 35.7727V23.7727H86.1577V25.2159H86.277C86.383 25.0038 86.5327 24.7784 86.7259 24.5398C86.919 24.2973 87.1804 24.0909 87.5099 23.9205C87.8395 23.7462 88.2599 23.6591 88.7713 23.6591C89.4455 23.6591 90.0535 23.8314 90.5952 24.1761C91.1406 24.517 91.5724 25.0227 91.8906 25.6932C92.2126 26.3598 92.3736 27.178 92.3736 28.1477C92.3736 29.1061 92.2164 29.9205 91.902 30.5909C91.5876 31.2614 91.1596 31.7727 90.6179 32.125C90.0762 32.4773 89.4626 32.6534 88.777 32.6534C88.277 32.6534 87.8622 32.5701 87.5327 32.4034C87.2031 32.2367 86.938 32.036 86.7372 31.8011C86.5402 31.5625 86.3868 31.3371 86.277 31.125H86.1918V35.7727H84.1349ZM86.152 28.1364C86.152 28.7008 86.2315 29.1951 86.3906 29.6193C86.5535 30.0436 86.7865 30.375 87.0895 30.6136C87.3963 30.8485 87.7675 30.9659 88.2031 30.9659C88.6577 30.9659 89.0384 30.8447 89.3452 30.6023C89.652 30.3561 89.883 30.0208 90.0384 29.5966C90.1974 29.1686 90.277 28.6818 90.277 28.1364C90.277 27.5947 90.1993 27.1136 90.044 26.6932C89.8887 26.2727 89.6577 25.9432 89.3509 25.7045C89.044 25.4659 88.6615 25.3466 88.2031 25.3466C87.7637 25.3466 87.3906 25.4621 87.0838 25.6932C86.777 25.9242 86.544 26.2481 86.3849 26.6648C86.2296 27.0814 86.152 27.572 86.152 28.1364ZM94.1349 35.7727V23.7727H96.1577V25.2159H96.277C96.383 25.0038 96.5327 24.7784 96.7259 24.5398C96.919 24.2973 97.1804 24.0909 97.5099 23.9205C97.8395 23.7462 98.2599 23.6591 98.7713 23.6591C99.4455 23.6591 100.054 23.8314 100.595 24.1761C101.141 24.517 101.572 25.0227 101.891 25.6932C102.213 26.3598 102.374 27.178 102.374 28.1477C102.374 29.1061 102.216 29.9205 101.902 30.5909C101.588 31.2614 101.16 31.7727 100.618 32.125C100.076 32.4773 99.4626 32.6534 98.777 32.6534C98.277 32.6534 97.8622 32.5701 97.5327 32.4034C97.2031 32.2367 96.938 32.036 96.7372 31.8011C96.5402 31.5625 96.3868 31.3371 96.277 31.125H96.1918V35.7727H94.1349ZM96.152 28.1364C96.152 28.7008 96.2315 29.1951 96.3906 29.6193C96.5535 30.0436 96.7865 30.375 97.0895 30.6136C97.3963 30.8485 97.7675 30.9659 98.2031 30.9659C98.6577 30.9659 99.0384 30.8447 99.3452 30.6023C99.652 30.3561 99.883 30.0208 100.038 29.5966C100.197 29.1686 100.277 28.6818 100.277 28.1364C100.277 27.5947 100.199 27.1136 100.044 26.6932C99.8887 26.2727 99.6577 25.9432 99.3509 25.7045C99.044 25.4659 98.6615 25.3466 98.2031 25.3466C97.7637 25.3466 97.3906 25.4621 97.0838 25.6932C96.777 25.9242 96.544 26.2481 96.3849 26.6648C96.2296 27.0814 96.152 27.572 96.152 28.1364ZM106.192 20.8636V32.5H104.135V20.8636H106.192ZM112.17 32.6705C111.295 32.6705 110.54 32.4886 109.903 32.125C109.271 31.7576 108.784 31.2386 108.443 30.5682C108.102 29.8939 107.932 29.1004 107.932 28.1875C107.932 27.2898 108.102 26.5019 108.443 25.8239C108.788 25.142 109.269 24.6117 109.886 24.233C110.504 23.8504 111.229 23.6591 112.062 23.6591C112.6 23.6591 113.108 23.7462 113.585 23.9205C114.066 24.0909 114.491 24.3561 114.858 24.7159C115.229 25.0758 115.521 25.5341 115.733 26.0909C115.945 26.6439 116.051 27.303 116.051 28.0682V28.6989H108.898V27.3125H114.08C114.076 26.9186 113.991 26.5682 113.824 26.2614C113.657 25.9508 113.424 25.7064 113.125 25.5284C112.83 25.3504 112.485 25.2614 112.091 25.2614C111.67 25.2614 111.301 25.3636 110.983 25.5682C110.665 25.7689 110.417 26.0341 110.239 26.3636C110.064 26.6894 109.975 27.0473 109.972 27.4375V28.6477C109.972 29.1553 110.064 29.5909 110.25 29.9545C110.436 30.3144 110.695 30.5909 111.028 30.7841C111.362 30.9735 111.752 31.0682 112.199 31.0682C112.498 31.0682 112.769 31.0265 113.011 30.9432C113.254 30.8561 113.464 30.7292 113.642 30.5625C113.82 30.3958 113.955 30.1894 114.045 29.9432L115.966 30.1591C115.845 30.6667 115.614 31.1098 115.273 31.4886C114.936 31.8636 114.504 32.1553 113.977 32.3636C113.451 32.5682 112.848 32.6705 112.17 32.6705Z" fill="white"/>
</svg>
