<svg width="125" height="54" viewBox="0 0 125 54" fill="none" xmlns="http://www.w3.org/2000/svg">
<rect width="125" height="54" rx="10" fill="white"/>
<rect width="24" height="24" transform="translate(15 15)" fill="white"/>
<path fill-rule="evenodd" clip-rule="evenodd" d="M38.04 27.2605C38.04 26.445 37.9668 25.6609 37.8309 24.9082H27V29.3566H33.1891C32.9225 30.7941 32.1123 32.0121 30.8943 32.8275V35.713H34.6109C36.7855 33.7109 38.04 30.7627 38.04 27.2605Z" fill="#4285F4"/>
<path fill-rule="evenodd" clip-rule="evenodd" d="M27.0034 38.5005C30.1084 38.5005 32.7116 37.4708 34.6143 35.7144L30.8977 32.829C29.8679 33.519 28.5507 33.9267 27.0034 33.9267C24.0082 33.9267 21.4729 31.9037 20.5686 29.1855H16.7266V32.1651C18.6188 35.9235 22.5079 38.5005 27.0034 38.5005Z" fill="#34A853"/>
<path fill-rule="evenodd" clip-rule="evenodd" d="M20.5652 29.1855C20.3352 28.4955 20.2045 27.7584 20.2045 27.0005C20.2045 26.2425 20.3352 25.5055 20.5652 24.8155V21.8359H16.7232C15.9443 23.3884 15.5 25.1448 15.5 27.0005C15.5 28.8562 15.9443 30.6125 16.7232 32.165L20.5652 29.1855Z" fill="#FBBC05"/>
<path fill-rule="evenodd" clip-rule="evenodd" d="M27.0034 20.0739C28.6918 20.0739 30.2077 20.6541 31.3995 21.7936L34.6979 18.4952C32.7063 16.6395 30.1032 15.5 27.0034 15.5C22.5079 15.5 18.6188 18.077 16.7266 21.8355L20.5686 24.815C21.4729 22.0968 24.0082 20.0739 27.0034 20.0739Z" fill="#EA4335"/>
<path d="M62.9432 24.5795C62.8485 24.2727 62.7178 23.9981 62.5511 23.7557C62.3883 23.5095 62.1913 23.2992 61.9602 23.125C61.733 22.9508 61.4716 22.8201 61.1761 22.733C60.8807 22.642 60.5587 22.5966 60.2102 22.5966C59.5852 22.5966 59.0284 22.7538 58.5398 23.0682C58.0511 23.3826 57.6667 23.8447 57.3864 24.4545C57.1098 25.0606 56.9716 25.7992 56.9716 26.6705C56.9716 27.5492 57.1098 28.2936 57.3864 28.9034C57.6629 29.5133 58.0473 29.9773 58.5398 30.2955C59.0322 30.6098 59.6042 30.767 60.2557 30.767C60.8466 30.767 61.358 30.6534 61.7898 30.4261C62.2254 30.1989 62.5606 29.8769 62.7955 29.4602C63.0303 29.0398 63.1477 28.5473 63.1477 27.983L63.625 28.0568H60.4659V26.4091H65.1875V27.8068C65.1875 28.803 64.9754 29.6648 64.5511 30.392C64.1269 31.1193 63.5436 31.6799 62.8011 32.0739C62.0587 32.464 61.2064 32.6591 60.2443 32.6591C59.1723 32.6591 58.2311 32.4186 57.4205 31.9375C56.6136 31.4527 55.983 30.7652 55.5284 29.875C55.0777 28.9811 54.8523 27.9205 54.8523 26.6932C54.8523 25.7538 54.9848 24.9148 55.25 24.1761C55.5189 23.4375 55.8939 22.8106 56.375 22.2955C56.8561 21.7765 57.4205 21.3826 58.0682 21.1136C58.7159 20.8409 59.4205 20.7045 60.1818 20.7045C60.8258 20.7045 61.4261 20.7992 61.983 20.9886C62.5398 21.1742 63.0341 21.4394 63.4659 21.7841C63.9015 22.1288 64.2595 22.5379 64.5398 23.0114C64.8201 23.4848 65.0038 24.0076 65.0909 24.5795H62.9432ZM70.9418 32.6705C70.0895 32.6705 69.3509 32.483 68.7259 32.108C68.1009 31.733 67.616 31.2083 67.2713 30.5341C66.9304 29.8598 66.7599 29.072 66.7599 28.1705C66.7599 27.2689 66.9304 26.4792 67.2713 25.8011C67.616 25.1231 68.1009 24.5966 68.7259 24.2216C69.3509 23.8466 70.0895 23.6591 70.9418 23.6591C71.794 23.6591 72.5327 23.8466 73.1577 24.2216C73.7827 24.5966 74.2656 25.1231 74.6065 25.8011C74.9512 26.4792 75.1236 27.2689 75.1236 28.1705C75.1236 29.072 74.9512 29.8598 74.6065 30.5341C74.2656 31.2083 73.7827 31.733 73.1577 32.108C72.5327 32.483 71.794 32.6705 70.9418 32.6705ZM70.9531 31.0227C71.4152 31.0227 71.8016 30.8958 72.1122 30.642C72.4228 30.3845 72.6539 30.0398 72.8054 29.608C72.9607 29.1761 73.0384 28.6951 73.0384 28.1648C73.0384 27.6307 72.9607 27.1477 72.8054 26.7159C72.6539 26.2803 72.4228 25.9337 72.1122 25.6761C71.8016 25.4186 71.4152 25.2898 70.9531 25.2898C70.4796 25.2898 70.0857 25.4186 69.7713 25.6761C69.4607 25.9337 69.2277 26.2803 69.0724 26.7159C68.9209 27.1477 68.8452 27.6307 68.8452 28.1648C68.8452 28.6951 68.9209 29.1761 69.0724 29.608C69.2277 30.0398 69.4607 30.3845 69.7713 30.642C70.0857 30.8958 70.4796 31.0227 70.9531 31.0227ZM80.6761 32.6705C79.8239 32.6705 79.0852 32.483 78.4602 32.108C77.8352 31.733 77.3504 31.2083 77.0057 30.5341C76.6648 29.8598 76.4943 29.072 76.4943 28.1705C76.4943 27.2689 76.6648 26.4792 77.0057 25.8011C77.3504 25.1231 77.8352 24.5966 78.4602 24.2216C79.0852 23.8466 79.8239 23.6591 80.6761 23.6591C81.5284 23.6591 82.267 23.8466 82.892 24.2216C83.517 24.5966 84 25.1231 84.3409 25.8011C84.6856 26.4792 84.858 27.2689 84.858 28.1705C84.858 29.072 84.6856 29.8598 84.3409 30.5341C84 31.2083 83.517 31.733 82.892 32.108C82.267 32.483 81.5284 32.6705 80.6761 32.6705ZM80.6875 31.0227C81.1496 31.0227 81.536 30.8958 81.8466 30.642C82.1572 30.3845 82.3883 30.0398 82.5398 29.608C82.6951 29.1761 82.7727 28.6951 82.7727 28.1648C82.7727 27.6307 82.6951 27.1477 82.5398 26.7159C82.3883 26.2803 82.1572 25.9337 81.8466 25.6761C81.536 25.4186 81.1496 25.2898 80.6875 25.2898C80.214 25.2898 79.8201 25.4186 79.5057 25.6761C79.1951 25.9337 78.9621 26.2803 78.8068 26.7159C78.6553 27.1477 78.5795 27.6307 78.5795 28.1648C78.5795 28.6951 78.6553 29.1761 78.8068 29.608C78.9621 30.0398 79.1951 30.3845 79.5057 30.642C79.8201 30.8958 80.214 31.0227 80.6875 31.0227ZM90.3991 35.9545C89.6605 35.9545 89.026 35.8542 88.4957 35.6534C87.9654 35.4564 87.5393 35.1913 87.2173 34.858C86.8954 34.5246 86.6719 34.1553 86.5469 33.75L88.3991 33.3011C88.4825 33.4716 88.6037 33.6402 88.7628 33.8068C88.9219 33.9773 89.1359 34.1174 89.4048 34.2273C89.6776 34.3409 90.0204 34.3977 90.4332 34.3977C91.0166 34.3977 91.4995 34.2557 91.8821 33.9716C92.2647 33.6913 92.456 33.2292 92.456 32.5852V30.9318H92.3537C92.2476 31.1439 92.0923 31.3617 91.8878 31.5852C91.687 31.8087 91.42 31.9962 91.0866 32.1477C90.7571 32.2992 90.3423 32.375 89.8423 32.375C89.1719 32.375 88.5639 32.2178 88.0185 31.9034C87.4768 31.5852 87.045 31.1117 86.723 30.483C86.4048 29.8504 86.2457 29.0587 86.2457 28.108C86.2457 27.1496 86.4048 26.3409 86.723 25.6818C87.045 25.0189 87.4787 24.517 88.0241 24.1761C88.5696 23.8314 89.1776 23.6591 89.848 23.6591C90.3594 23.6591 90.7798 23.7462 91.1094 23.9205C91.4427 24.0909 91.7079 24.2973 91.9048 24.5398C92.1018 24.7784 92.2514 25.0038 92.3537 25.2159H92.4673V23.7727H94.4957V32.642C94.4957 33.3883 94.3177 34.0057 93.9616 34.4943C93.6056 34.983 93.1188 35.3485 92.5014 35.5909C91.884 35.8333 91.1832 35.9545 90.3991 35.9545ZM90.4162 30.7614C90.8518 30.7614 91.223 30.6553 91.5298 30.4432C91.8366 30.2311 92.0696 29.9261 92.2287 29.5284C92.3878 29.1307 92.4673 28.6534 92.4673 28.0966C92.4673 27.5473 92.3878 27.0663 92.2287 26.6534C92.0734 26.2405 91.8423 25.9205 91.5355 25.6932C91.2325 25.4621 90.8594 25.3466 90.4162 25.3466C89.9579 25.3466 89.5753 25.4659 89.2685 25.7045C88.9616 25.9432 88.7306 26.2708 88.5753 26.6875C88.42 27.1004 88.3423 27.5701 88.3423 28.0966C88.3423 28.6307 88.42 29.0985 88.5753 29.5C88.7344 29.8977 88.9673 30.2083 89.2741 30.4318C89.5848 30.6515 89.9654 30.7614 90.4162 30.7614ZM98.6605 20.8636V32.5H96.6037V20.8636H98.6605ZM104.639 32.6705C103.764 32.6705 103.009 32.4886 102.372 32.125C101.74 31.7576 101.253 31.2386 100.912 30.5682C100.571 29.8939 100.401 29.1004 100.401 28.1875C100.401 27.2898 100.571 26.5019 100.912 25.8239C101.257 25.142 101.738 24.6117 102.355 24.233C102.973 23.8504 103.698 23.6591 104.531 23.6591C105.069 23.6591 105.577 23.7462 106.054 23.9205C106.535 24.0909 106.959 24.3561 107.327 24.7159C107.698 25.0758 107.99 25.5341 108.202 26.0909C108.414 26.6439 108.52 27.303 108.52 28.0682V28.6989H101.366V27.3125H106.548C106.545 26.9186 106.459 26.5682 106.293 26.2614C106.126 25.9508 105.893 25.7064 105.594 25.5284C105.298 25.3504 104.954 25.2614 104.56 25.2614C104.139 25.2614 103.77 25.3636 103.452 25.5682C103.134 25.7689 102.885 26.0341 102.707 26.3636C102.533 26.6894 102.444 27.0473 102.44 27.4375V28.6477C102.44 29.1553 102.533 29.5909 102.719 29.9545C102.904 30.3144 103.164 30.5909 103.497 30.7841C103.83 30.9735 104.221 31.0682 104.668 31.0682C104.967 31.0682 105.238 31.0265 105.48 30.9432C105.723 30.8561 105.933 30.7292 106.111 30.5625C106.289 30.3958 106.423 30.1894 106.514 29.9432L108.435 30.1591C108.313 30.6667 108.082 31.1098 107.741 31.4886C107.404 31.8636 106.973 32.1553 106.446 32.3636C105.92 32.5682 105.317 32.6705 104.639 32.6705Z" fill="black" fill-opacity="0.54"/>
</svg>
