<svg width="149" height="54" viewBox="0 0 149 54" fill="none" xmlns="http://www.w3.org/2000/svg">
<rect width="149" height="54" rx="10" fill="#0077B5"/>
<rect x="7.5" width="135" height="54" rx="10" fill="#0077B5"/>
<path d="M22.5 16.7035C22.5 15.7627 23.2627 15 24.2035 15H44.7965C45.7373 15 46.5 15.7627 46.5 16.7035V37.2964C46.5 38.2372 45.7373 38.9999 44.7965 38.9999H24.2035C23.2627 38.9999 22.5 38.2372 22.5 37.2964V16.7035Z" fill="white"/>
<path d="M27.8867 22.4531C29.0365 22.4531 29.9687 21.5209 29.9687 20.3711C29.9687 19.2212 29.0365 18.2891 27.8867 18.2891C26.7368 18.2891 25.8047 19.2212 25.8047 20.3711C25.8047 21.5209 26.7368 22.4531 27.8867 22.4531Z" fill="#0077B5"/>
<path d="M31.8754 23.9917H35.326V25.5724C35.326 25.5724 36.2623 23.6997 38.81 23.6997C41.0826 23.6997 42.9653 24.8193 42.9653 28.2318V35.4277H39.3895V29.1037C39.3895 27.0907 38.3148 26.8693 37.4959 26.8693C35.7963 26.8693 35.5053 28.3353 35.5053 29.3663V35.4277H31.8754V23.9917Z" fill="#0077B5"/>
<path d="M26.0718 23.9917H29.7016V35.4277H26.0718V23.9917Z" fill="#0077B5"/>
<path d="M62.6477 32.5V20.8636H64.7557V30.733H69.8807V32.5H62.6477ZM71.6193 32.5V23.7727H73.6761V32.5H71.6193ZM72.6534 22.5341C72.3277 22.5341 72.0473 22.4261 71.8125 22.2102C71.5777 21.9905 71.4602 21.7273 71.4602 21.4205C71.4602 21.1098 71.5777 20.8466 71.8125 20.6307C72.0473 20.411 72.3277 20.3011 72.6534 20.3011C72.983 20.3011 73.2633 20.411 73.4943 20.6307C73.7292 20.8466 73.8466 21.1098 73.8466 21.4205C73.8466 21.7273 73.7292 21.9905 73.4943 22.2102C73.2633 22.4261 72.983 22.5341 72.6534 22.5341ZM77.848 27.3864V32.5H75.7912V23.7727H77.7571V25.2557H77.8594C78.0601 24.767 78.3802 24.3788 78.8196 24.0909C79.2628 23.803 79.8101 23.6591 80.4616 23.6591C81.0639 23.6591 81.5885 23.7879 82.0355 24.0455C82.4863 24.303 82.8348 24.6761 83.081 25.1648C83.331 25.6534 83.4541 26.2462 83.4503 26.9432V32.5H81.3935V27.2614C81.3935 26.678 81.242 26.2216 80.9389 25.892C80.6397 25.5625 80.2249 25.3977 79.6946 25.3977C79.3348 25.3977 79.0147 25.4773 78.7344 25.6364C78.4579 25.7917 78.2401 26.017 78.081 26.3125C77.9257 26.608 77.848 26.9659 77.848 27.3864ZM87.4162 29.7614L87.4105 27.2784H87.7401L90.8764 23.7727H93.2798L89.4219 28.0682H88.9957L87.4162 29.7614ZM85.5412 32.5V20.8636H87.598V32.5H85.5412ZM91.0185 32.5L88.1776 28.5284L89.5639 27.0795L93.4787 32.5H91.0185ZM98.1548 32.6705C97.2798 32.6705 96.5241 32.4886 95.8878 32.125C95.2552 31.7576 94.7685 31.2386 94.4276 30.5682C94.0866 29.8939 93.9162 29.1004 93.9162 28.1875C93.9162 27.2898 94.0866 26.5019 94.4276 25.8239C94.7723 25.142 95.2533 24.6117 95.8707 24.233C96.4882 23.8504 97.2135 23.6591 98.0469 23.6591C98.5848 23.6591 99.0923 23.7462 99.5696 23.9205C100.051 24.0909 100.475 24.3561 100.842 24.7159C101.214 25.0758 101.505 25.5341 101.717 26.0909C101.929 26.6439 102.036 27.303 102.036 28.0682V28.6989H94.8821V27.3125H100.064C100.06 26.9186 99.9749 26.5682 99.8082 26.2614C99.6416 25.9508 99.4086 25.7064 99.1094 25.5284C98.8139 25.3504 98.4692 25.2614 98.0753 25.2614C97.6548 25.2614 97.2855 25.3636 96.9673 25.5682C96.6491 25.7689 96.401 26.0341 96.223 26.3636C96.0488 26.6894 95.9598 27.0473 95.956 27.4375V28.6477C95.956 29.1553 96.0488 29.5909 96.2344 29.9545C96.42 30.3144 96.6795 30.5909 97.0128 30.7841C97.3461 30.9735 97.7363 31.0682 98.1832 31.0682C98.4825 31.0682 98.7533 31.0265 98.9957 30.9432C99.2382 30.8561 99.4484 30.7292 99.6264 30.5625C99.8045 30.3958 99.9389 30.1894 100.03 29.9432L101.95 30.1591C101.829 30.6667 101.598 31.1098 101.257 31.4886C100.92 31.8636 100.488 32.1553 99.9616 32.3636C99.4351 32.5682 98.8329 32.6705 98.1548 32.6705ZM107.014 32.6534C106.329 32.6534 105.715 32.4773 105.173 32.125C104.632 31.7727 104.204 31.2614 103.889 30.5909C103.575 29.9205 103.418 29.1061 103.418 28.1477C103.418 27.178 103.577 26.3598 103.895 25.6932C104.217 25.0227 104.651 24.517 105.196 24.1761C105.741 23.8314 106.349 23.6591 107.02 23.6591C107.531 23.6591 107.952 23.7462 108.281 23.9205C108.611 24.0909 108.872 24.2973 109.065 24.5398C109.259 24.7784 109.408 25.0038 109.514 25.2159H109.599V20.8636H111.662V32.5H109.639V31.125H109.514C109.408 31.3371 109.255 31.5625 109.054 31.8011C108.853 32.036 108.588 32.2367 108.259 32.4034C107.929 32.5701 107.514 32.6534 107.014 32.6534ZM107.588 30.9659C108.024 30.9659 108.395 30.8485 108.702 30.6136C109.009 30.375 109.241 30.0436 109.401 29.6193C109.56 29.1951 109.639 28.7008 109.639 28.1364C109.639 27.572 109.56 27.0814 109.401 26.6648C109.245 26.2481 109.014 25.9242 108.707 25.6932C108.404 25.4621 108.031 25.3466 107.588 25.3466C107.13 25.3466 106.747 25.4659 106.44 25.7045C106.134 25.9432 105.902 26.2727 105.747 26.6932C105.592 27.1136 105.514 27.5947 105.514 28.1364C105.514 28.6818 105.592 29.1686 105.747 29.5966C105.906 30.0208 106.139 30.3561 106.446 30.6023C106.757 30.8447 107.137 30.9659 107.588 30.9659ZM116.053 20.8636V32.5H113.945V20.8636H116.053ZM120.301 27.3864V32.5H118.244V23.7727H120.21V25.2557H120.312C120.513 24.767 120.833 24.3788 121.273 24.0909C121.716 23.803 122.263 23.6591 122.915 23.6591C123.517 23.6591 124.042 23.7879 124.489 24.0455C124.939 24.303 125.288 24.6761 125.534 25.1648C125.784 25.6534 125.907 26.2462 125.903 26.9432V32.5H123.847V27.2614C123.847 26.678 123.695 26.2216 123.392 25.892C123.093 25.5625 122.678 25.3977 122.148 25.3977C121.788 25.3977 121.468 25.4773 121.188 25.6364C120.911 25.7917 120.693 26.017 120.534 26.3125C120.379 26.608 120.301 26.9659 120.301 27.3864Z" fill="white"/>
</svg>
