<svg width="52" height="36" viewBox="0 0 52 36" fill="none" xmlns="http://www.w3.org/2000/svg">
<path d="M12.8587 36C9.56159 36 6.5942 34.6977 3.95652 32.093C1.31884 29.3953 0 25.4419 0 20.2326C0 14.2791 1.60145 9.44185 4.80435 5.72093C8.10145 1.90697 12.7645 0 18.7935 0C20.9601 0 22.6558 0.13953 23.8804 0.418597V6.8372C22.5616 6.65116 20.8659 6.55814 18.7935 6.55814C15.5906 6.55814 13 7.6279 11.0217 9.76744C9.13768 11.6279 8.05435 14.093 7.77174 17.1628C8.99638 15.6744 10.9746 14.9302 13.7065 14.9302C16.5326 14.9302 18.9348 15.907 20.913 17.8605C22.8913 19.7209 23.8804 22.186 23.8804 25.2558C23.8804 28.4186 22.8442 31.0233 20.7717 33.0698C18.6993 35.0233 16.0616 36 12.8587 36ZM40.9783 36C37.6812 36 34.7138 34.6977 32.0761 32.093C29.4384 29.3953 28.1196 25.4419 28.1196 20.2326C28.1196 14.2791 29.721 9.44185 32.9239 5.72093C36.221 1.90697 40.8841 0 46.913 0C49.0797 0 50.7754 0.13953 52 0.418597V6.8372C50.6812 6.65116 48.9855 6.55814 46.913 6.55814C43.7101 6.55814 41.1196 7.6279 39.1413 9.76744C37.2572 11.6279 36.1739 14.093 35.8913 17.1628C37.1159 15.6744 39.0942 14.9302 41.8261 14.9302C44.6522 14.9302 47.0543 15.907 49.0326 17.8605C51.0109 19.7209 52 22.186 52 25.2558C52 28.4186 50.9638 31.0233 48.8913 33.0698C46.8188 35.0233 44.1812 36 40.9783 36Z" fill="#8D000E"/>
</svg>
