<svg width="30" height="30" viewBox="0 0 30 30" fill="none" xmlns="http://www.w3.org/2000/svg">
<g id="headphones 1">
<path id="Vector" d="M26.2499 15.53V13.75C26.2499 10.7663 25.0646 7.90483 22.9548 5.79505C20.845 3.68526 17.9836 2.5 14.9999 2.5C12.0162 2.5 9.15471 3.68526 7.04493 5.79505C4.93514 7.90483 3.74988 10.7663 3.74988 13.75V15.53C2.43883 16.1073 1.36588 17.1174 0.710654 18.3913C0.0554305 19.6652 -0.142297 21.1255 0.150574 22.5278C0.443445 23.9301 1.20914 25.1892 2.31946 26.0943C3.42979 26.9995 4.81736 27.4957 6.24988 27.5C6.91292 27.5 7.5488 27.2366 8.01764 26.7678C8.48649 26.2989 8.74988 25.663 8.74988 25V17.5C8.74988 16.837 8.48649 16.2011 8.01764 15.7322C7.5488 15.2634 6.91292 15 6.24988 15V13.75C6.24988 11.4294 7.17175 9.20376 8.81269 7.56282C10.4536 5.92187 12.6792 5 14.9999 5C17.3205 5 19.5461 5.92187 21.1871 7.56282C22.828 9.20376 23.7499 11.4294 23.7499 13.75V15C23.0868 15 22.451 15.2634 21.9821 15.7322C21.5133 16.2011 21.2499 16.837 21.2499 17.5V25C21.2499 25.663 21.5133 26.2989 21.9821 26.7678C22.451 27.2366 23.0868 27.5 23.7499 27.5C25.1824 27.4957 26.57 26.9995 27.6803 26.0943C28.7906 25.1892 29.5563 23.9301 29.8492 22.5278C30.1421 21.1255 29.9443 19.6652 29.2891 18.3913C28.6339 17.1174 27.5609 16.1073 26.2499 15.53ZM6.24988 25C5.25532 25 4.30149 24.6049 3.59823 23.9017C2.89497 23.1984 2.49988 22.2446 2.49988 21.25C2.49988 20.2554 2.89497 19.3016 3.59823 18.5984C4.30149 17.8951 5.25532 17.5 6.24988 17.5V25ZM23.7499 25V17.5C24.7444 17.5 25.6983 17.8951 26.4015 18.5984C27.1048 19.3016 27.4999 20.2554 27.4999 21.25C27.4999 22.2446 27.1048 23.1984 26.4015 23.9017C25.6983 24.6049 24.7444 25 23.7499 25Z" fill="#E95C40"/>
</g>
</svg>
