<svg width="30" height="30" viewBox="0 0 30 30" fill="none" xmlns="http://www.w3.org/2000/svg">
<g id="boxes 1" clip-path="url(#clip0_1_125403)">
<path id="Vector" d="M24.375 20C24.375 20.6912 23.8162 21.25 23.125 21.25H20.625C19.9338 21.25 19.375 20.6912 19.375 20C19.375 19.3088 19.9338 18.75 20.625 18.75H23.125C23.8162 18.75 24.375 19.3088 24.375 20ZM30 18.75V25C30 27.7575 27.7575 30 25 30H5C2.2425 30 0 27.7575 0 25V18.75C0 15.9925 2.2425 13.75 5 13.75H6.25V5C6.25 2.2425 8.4925 0 11.25 0H18.75C21.5075 0 23.75 2.2425 23.75 5V13.75H25C27.7575 13.75 30 15.9925 30 18.75ZM8.75 13.75H21.25V5C21.25 3.62125 20.1287 2.5 18.75 2.5H11.25C9.87125 2.5 8.75 3.62125 8.75 5V13.75ZM5 27.5H13.75V16.25H5C3.62125 16.25 2.5 17.3713 2.5 18.75V25C2.5 26.3787 3.62125 27.5 5 27.5ZM27.5 18.75C27.5 17.3713 26.3787 16.25 25 16.25H16.25V27.5H25C26.3787 27.5 27.5 26.3787 27.5 25V18.75ZM9.375 18.75H6.875C6.18375 18.75 5.625 19.3088 5.625 20C5.625 20.6912 6.18375 21.25 6.875 21.25H9.375C10.0662 21.25 10.625 20.6912 10.625 20C10.625 19.3088 10.0662 18.75 9.375 18.75ZM17.5 6.25C17.5 5.55875 16.9412 5 16.25 5H13.75C13.0588 5 12.5 5.55875 12.5 6.25C12.5 6.94125 13.0588 7.5 13.75 7.5H16.25C16.9412 7.5 17.5 6.94125 17.5 6.25Z" fill="#E95C40"/>
</g>
<defs>
<clipPath id="clip0_1_125403">
<rect width="30" height="30" fill="white"/>
</clipPath>
</defs>
</svg>
