<svg width="30" height="30" viewBox="0 0 30 30" fill="none" xmlns="http://www.w3.org/2000/svg">
<g id="palette 1" clip-path="url(#clip0_1_125416)">
<path id="Vector" d="M21.3935 10.0629C21.0352 10.1581 20.7131 10.3574 20.468 10.6357C20.2229 10.914 20.0658 11.2587 20.0166 11.6262C19.9674 11.9937 20.0283 12.3676 20.1915 12.7005C20.3548 13.0335 20.6131 13.3105 20.9338 13.4967C21.2545 13.6828 21.6232 13.7697 21.9933 13.7463C22.3634 13.7229 22.7182 13.5903 23.0129 13.3652C23.3076 13.1402 23.529 12.8328 23.649 12.4819C23.7691 12.1311 23.7824 11.7525 23.6873 11.3941C23.6241 11.1561 23.5147 10.9328 23.3652 10.7371C23.2158 10.5413 23.0292 10.377 22.8162 10.2533C22.6032 10.1297 22.3679 10.0493 22.1238 10.0166C21.8797 9.9839 21.6316 9.99963 21.3935 10.0629Z" fill="#E95C40"/>
<path id="Vector_2" d="M15.1435 6.31287C14.7852 6.40809 14.4631 6.60743 14.218 6.8857C13.9729 7.16397 13.8158 7.50866 13.7666 7.87619C13.7174 8.24373 13.7783 8.6176 13.9415 8.95054C14.1048 9.28348 14.3631 9.56053 14.6838 9.74666C15.0045 9.9328 15.3732 10.0197 15.7433 9.99626C16.1134 9.97287 16.4682 9.84026 16.7629 9.61522C17.0576 9.39017 17.279 9.08279 17.399 8.73194C17.5191 8.38109 17.5324 8.00253 17.4373 7.64412C17.3741 7.40608 17.2647 7.18281 17.1152 6.98707C16.9658 6.79133 16.7792 6.62696 16.5662 6.50334C16.3532 6.37971 16.1179 6.29926 15.8738 6.26658C15.6297 6.2339 15.3816 6.24963 15.1435 6.31287Z" fill="#E95C40"/>
<path id="Vector_3" d="M8.89354 10.0629C8.53516 10.1581 8.21306 10.3574 7.96796 10.6357C7.72287 10.914 7.56579 11.2587 7.51658 11.6262C7.46738 11.9937 7.52825 12.3676 7.69152 12.7005C7.85478 13.0335 8.1131 13.3105 8.43382 13.4967C8.75453 13.6828 9.12323 13.7697 9.49331 13.7463C9.86338 13.7229 10.2182 13.5903 10.5129 13.3652C10.8076 13.1402 11.029 12.8328 11.149 12.4819C11.2691 12.1311 11.2824 11.7525 11.1873 11.3941C11.1241 11.1561 11.0147 10.9328 10.8652 10.7371C10.7158 10.5413 10.5292 10.377 10.3162 10.2533C10.1032 10.1297 9.86791 10.0493 9.62381 10.0166C9.37971 9.9839 9.13156 9.99963 8.89354 10.0629Z" fill="#E95C40"/>
<path id="Vector_4" d="M8.89354 17.5629C8.53516 17.6581 8.21306 17.8574 7.96796 18.1357C7.72287 18.414 7.56579 18.7587 7.51658 19.1262C7.46738 19.4937 7.52825 19.8676 7.69152 20.2005C7.85478 20.5335 8.1131 20.8105 8.43382 20.9967C8.75453 21.1828 9.12323 21.2697 9.49331 21.2463C9.86338 21.2229 10.2182 21.0903 10.5129 20.8652C10.8076 20.6402 11.029 20.3328 11.149 19.9819C11.2691 19.6311 11.2824 19.2525 11.1873 18.8941C11.1241 18.6561 11.0147 18.4328 10.8652 18.2371C10.7158 18.0413 10.5292 17.877 10.3162 17.7533C10.1032 17.6297 9.86791 17.5493 9.62381 17.5166C9.37971 17.4839 9.13156 17.4996 8.89354 17.5629Z" fill="#E95C40"/>
<path id="Vector_5" d="M15.6248 0.00905998C13.6123 -0.0609172 11.6062 0.275048 9.72635 0.996925C7.84646 1.7188 6.13116 2.81181 4.68272 4.21079C3.23428 5.60977 2.08236 7.28607 1.29563 9.13976C0.508904 10.9935 0.103474 12.9866 0.103516 15.0003C0.108147 18.9771 1.68999 22.7898 4.50203 25.6018C7.31407 28.4138 11.1267 29.9957 15.1035 30.0003C15.526 30.0003 15.941 29.9728 16.3535 29.9378C16.6665 29.9114 16.9581 29.7682 17.1703 29.5366C17.3824 29.3049 17.4996 29.0019 17.4985 28.6878L17.4585 24.2028C17.4484 23.3165 17.7027 22.4473 18.1888 21.7062C18.675 20.9651 19.371 20.3857 20.188 20.042C21.005 19.6983 21.9059 19.6059 22.7756 19.7766C23.6454 19.9473 24.4445 20.3733 25.071 21.0003L25.196 21.1253C25.4798 21.4115 25.8313 21.6213 26.2179 21.7351C26.6045 21.849 27.0137 21.8633 27.4073 21.7766C27.7945 21.6953 28.1551 21.5179 28.4559 21.2609C28.7566 21.0038 28.9879 20.6752 29.1285 20.3053C29.8187 18.4932 30.1486 16.5638 30.0998 14.6253C29.9591 10.8178 28.393 7.20216 25.712 4.49497C23.031 1.78779 19.4307 0.186701 15.6248 0.00905998ZM26.8523 19.2591L26.8348 19.2416C25.8577 18.2661 24.6125 17.6034 23.2577 17.3376C21.9029 17.0719 20.4997 17.2151 19.2265 17.7492C17.9533 18.2832 16.8678 19.184 16.108 20.3367C15.3482 21.4895 14.9485 22.8422 14.9598 24.2228L14.9898 27.5003C11.6746 27.4854 8.50106 26.1541 6.16741 23.7994C3.83375 21.4446 2.5311 18.2593 2.54602 14.9441C2.56093 11.6289 3.8922 8.45536 6.24696 6.1217C8.60171 3.78804 11.7871 2.48539 15.1023 2.50031C15.2485 2.50031 15.396 2.50031 15.5435 2.50781C18.714 2.65673 21.7128 3.99124 23.9458 6.24689C26.1788 8.50255 27.4829 11.5147 27.5998 14.6866C27.641 16.241 27.3887 17.7894 26.856 19.2503L26.8523 19.2591Z" fill="#E95C40"/>
</g>
<defs>
<clipPath id="clip0_1_125416">
<rect width="30" height="30" fill="white"/>
</clipPath>
</defs>
</svg>
