<svg width="30" height="30" viewBox="0 0 30 30" fill="none" xmlns="http://www.w3.org/2000/svg">
<g id="cloud-share 1" clip-path="url(#clip0_1_125409)">
<path id="Vector" d="M26.2505 22.5007C25.2809 22.5018 24.3498 22.8802 23.6542 23.5557L19.9542 21.7045C19.9791 21.5543 19.9946 21.4028 20.0005 21.2507C19.9946 21.0986 19.9791 20.9471 19.9542 20.797L23.6542 18.9457C24.2772 19.5425 25.0873 19.9056 25.9473 19.9738C26.8074 20.0419 27.6645 19.8109 28.3738 19.3197C29.083 18.8285 29.6008 18.1073 29.8394 17.2783C30.0781 16.4492 30.023 15.5632 29.6834 14.7701C29.3439 13.977 28.7408 13.3256 27.9762 12.926C27.2115 12.5265 26.3324 12.4034 25.4874 12.5775C24.6424 12.7517 23.8836 13.2125 23.3393 13.8818C22.795 14.5512 22.4987 15.388 22.5005 16.2507C22.5063 16.4028 22.5218 16.5543 22.5467 16.7045L18.8467 18.5557C18.3175 18.0436 17.6492 17.6987 16.9252 17.564C16.2012 17.4293 15.4536 17.5107 14.7756 17.7981C14.0976 18.0855 13.5192 18.5662 13.1126 19.1802C12.706 19.7942 12.4891 20.5143 12.4891 21.2507C12.4891 21.9871 12.706 22.7072 13.1126 23.3212C13.5192 23.9352 14.0976 24.4159 14.7756 24.7033C15.4536 24.9907 16.2012 25.0721 16.9252 24.9374C17.6492 24.8027 18.3175 24.4578 18.8467 23.9457L22.5467 25.797C22.5218 25.9471 22.5063 26.0986 22.5005 26.2507C22.5005 26.9924 22.7204 27.7174 23.1325 28.3341C23.5445 28.9508 24.1302 29.4314 24.8154 29.7153C25.5006 29.9991 26.2546 30.0734 26.9821 29.9287C27.7095 29.784 28.3777 29.4268 28.9021 28.9024C29.4266 28.3779 29.7837 27.7097 29.9284 26.9823C30.0731 26.2549 29.9988 25.5009 29.715 24.8156C29.4312 24.1304 28.9505 23.5448 28.3339 23.1327C27.7172 22.7206 26.9921 22.5007 26.2505 22.5007ZM26.2505 15.0007C26.4977 15.0007 26.7394 15.074 26.9449 15.2114C27.1505 15.3487 27.3107 15.5439 27.4053 15.7724C27.4999 16.0008 27.5247 16.2521 27.4764 16.4946C27.4282 16.737 27.3092 16.9598 27.1343 17.1346C26.9595 17.3094 26.7368 17.4285 26.4943 17.4767C26.2519 17.5249 26.0005 17.5002 25.7721 17.4056C25.5437 17.3109 25.3485 17.1507 25.2111 16.9452C25.0738 16.7396 25.0005 16.4979 25.0005 16.2507C25.0005 15.9192 25.1322 15.6012 25.3666 15.3668C25.601 15.1324 25.9189 15.0007 26.2505 15.0007ZM16.2505 22.5007C16.0032 22.5007 15.7616 22.4274 15.556 22.2901C15.3504 22.1527 15.1902 21.9575 15.0956 21.7291C15.001 21.5007 14.9763 21.2493 15.0245 21.0068C15.0727 20.7644 15.1918 20.5416 15.3666 20.3668C15.5414 20.192 15.7641 20.073 16.0066 20.0247C16.2491 19.9765 16.5004 20.0013 16.7288 20.0959C16.9572 20.1905 17.1525 20.3507 17.2898 20.5562C17.4272 20.7618 17.5005 21.0035 17.5005 21.2507C17.5005 21.5822 17.3688 21.9002 17.1343 22.1346C16.8999 22.369 16.582 22.5007 16.2505 22.5007ZM26.2505 27.5007C26.0032 27.5007 25.7616 27.4274 25.556 27.2901C25.3504 27.1527 25.1902 26.9575 25.0956 26.7291C25.001 26.5007 24.9763 26.2493 25.0245 26.0068C25.0727 25.7644 25.1918 25.5416 25.3666 25.3668C25.5414 25.192 25.7641 25.073 26.0066 25.0247C26.2491 24.9765 26.5004 25.0013 26.7288 25.0959C26.9572 25.1905 27.1525 25.3507 27.2898 25.5562C27.4272 25.7618 27.5005 26.0035 27.5005 26.2507C27.5005 26.5822 27.3688 26.9002 27.1343 27.1346C26.8999 27.369 26.582 27.5007 26.2505 27.5007ZM15.0005 27.5007C15.0005 27.8322 14.8688 28.1502 14.6343 28.3846C14.3999 28.619 14.082 28.7507 13.7505 28.7507H7.09922C5.4333 28.7203 3.82791 28.121 2.54959 27.0523C1.27126 25.9836 0.396916 24.5099 0.0717154 22.8757C-0.141148 21.4691 0.092273 20.0311 0.739151 18.764C1.38603 17.497 2.41382 16.4645 3.67797 15.812C2.59278 13.8386 2.23866 11.5457 2.67797 9.33696C3.10512 7.15231 4.24898 5.17264 5.92836 3.71153C7.60774 2.25043 9.72662 1.39143 11.9494 1.27061C14.1721 1.14978 16.3716 1.77405 18.1995 3.04451C20.0273 4.31497 21.379 6.15898 22.0405 8.28446C22.1035 8.50014 22.2188 8.6969 22.3763 8.8572C22.5338 9.0175 22.7284 9.13636 22.943 9.20321C23.1034 9.24837 23.2532 9.32517 23.3836 9.42908C23.5139 9.533 23.6222 9.66193 23.7019 9.8083C23.7817 9.95467 23.8314 10.1155 23.8481 10.2814C23.8647 10.4472 23.8481 10.6148 23.7991 10.7741C23.75 10.9334 23.6696 11.0813 23.5626 11.2091C23.4556 11.3369 23.3241 11.442 23.1758 11.5182C23.0275 11.5944 22.8655 11.6402 22.6993 11.6529C22.5331 11.6655 22.3661 11.6448 22.208 11.592C21.6053 11.4046 21.0575 11.0729 20.6122 10.6257C20.167 10.1784 19.8377 9.62918 19.653 9.02571C19.3522 8.02472 18.8454 7.09765 18.1653 6.30398C17.4852 5.51031 16.6467 4.86756 15.7036 4.41695C14.7605 3.96635 13.7336 3.71785 12.6889 3.68739C11.6441 3.65692 10.6045 3.84517 9.63675 4.24006C8.669 4.63495 7.79447 5.22775 7.06927 5.98045C6.34406 6.73314 5.78419 7.62911 5.42557 8.61088C5.06695 9.59264 4.91749 10.6385 4.98679 11.6814C5.05608 12.7244 5.3426 13.7413 5.82797 14.667C6.13726 15.2444 6.20679 15.9204 6.02152 16.5487C5.83625 17.1771 5.41108 17.7072 4.83797 18.0245C4.03337 18.4408 3.37943 19.0988 2.96801 19.9059C2.5566 20.713 2.4084 21.6288 2.54422 22.5245C2.7756 23.5664 3.35054 24.5003 4.17665 25.1761C5.00277 25.8519 6.03208 26.2304 7.09922 26.2507H13.7505C14.082 26.2507 14.3999 26.3824 14.6343 26.6168C14.8688 26.8512 15.0005 27.1692 15.0005 27.5007Z" fill="#E95C40"/>
</g>
<defs>
<clipPath id="clip0_1_125409">
<rect width="30" height="30" fill="white"/>
</clipPath>
</defs>
</svg>
