<svg width="30" height="30" viewBox="0 0 30 30" fill="none" xmlns="http://www.w3.org/2000/svg">
<g id="data-transfer 1" clip-path="url(#clip0_1_125397)">
<path id="Vector" d="M10 0H5C3.67392 0 2.40215 0.526784 1.46447 1.46447C0.526784 2.40215 0 3.67392 0 5L0 6.25C0 7.57608 0.526784 8.84785 1.46447 9.78553C2.40215 10.7232 3.67392 11.25 5 11.25H6.25V13.75H3.75C3.41848 13.75 3.10054 13.8817 2.86612 14.1161C2.6317 14.3505 2.5 14.6685 2.5 15C2.5 15.3315 2.6317 15.6495 2.86612 15.8839C3.10054 16.1183 3.41848 16.25 3.75 16.25H11.25C11.5815 16.25 11.8995 16.1183 12.1339 15.8839C12.3683 15.6495 12.5 15.3315 12.5 15C12.5 14.6685 12.3683 14.3505 12.1339 14.1161C11.8995 13.8817 11.5815 13.75 11.25 13.75H8.75V11.25H10C11.3261 11.25 12.5979 10.7232 13.5355 9.78553C14.4732 8.84785 15 7.57608 15 6.25V5C15 3.67392 14.4732 2.40215 13.5355 1.46447C12.5979 0.526784 11.3261 0 10 0V0ZM12.5 6.25C12.5 6.91304 12.2366 7.54893 11.7678 8.01777C11.2989 8.48661 10.663 8.75 10 8.75H5C4.33696 8.75 3.70107 8.48661 3.23223 8.01777C2.76339 7.54893 2.5 6.91304 2.5 6.25V5C2.5 4.33696 2.76339 3.70107 3.23223 3.23223C3.70107 2.76339 4.33696 2.5 5 2.5H10C10.663 2.5 11.2989 2.76339 11.7678 3.23223C12.2366 3.70107 12.5 4.33696 12.5 5V6.25ZM25 13.75H22.5C21.1739 13.75 19.9021 14.2768 18.9645 15.2145C18.0268 16.1521 17.5 17.4239 17.5 18.75V25C17.5 26.3261 18.0268 27.5979 18.9645 28.5355C19.9021 29.4732 21.1739 30 22.5 30H25C26.3261 30 27.5979 29.4732 28.5355 28.5355C29.4732 27.5979 30 26.3261 30 25V18.75C30 17.4239 29.4732 16.1521 28.5355 15.2145C27.5979 14.2768 26.3261 13.75 25 13.75ZM27.5 25C27.5 25.663 27.2366 26.2989 26.7678 26.7678C26.2989 27.2366 25.663 27.5 25 27.5H22.5C21.837 27.5 21.2011 27.2366 20.7322 26.7678C20.2634 26.2989 20 25.663 20 25V18.75C20 18.087 20.2634 17.4511 20.7322 16.9822C21.2011 16.5134 21.837 16.25 22.5 16.25H25C25.663 16.25 26.2989 16.5134 26.7678 16.9822C27.2366 17.4511 27.5 18.087 27.5 18.75V25ZM17.5 5C17.5 4.66848 17.6317 4.35054 17.8661 4.11612C18.1005 3.8817 18.4185 3.75 18.75 3.75H21.25C22.2446 3.75 23.1984 4.14509 23.9017 4.84835C24.6049 5.55161 25 6.50544 25 7.5V10C25 10.3315 24.8683 10.6495 24.6339 10.8839C24.3995 11.1183 24.0815 11.25 23.75 11.25C23.4185 11.25 23.1005 11.1183 22.8661 10.8839C22.6317 10.6495 22.5 10.3315 22.5 10V7.5C22.5 7.16848 22.3683 6.85054 22.1339 6.61612C21.8995 6.3817 21.5815 6.25 21.25 6.25H18.75C18.4185 6.25 18.1005 6.1183 17.8661 5.88388C17.6317 5.64946 17.5 5.33152 17.5 5ZM15 25C15 25.3315 14.8683 25.6495 14.6339 25.8839C14.3995 26.1183 14.0815 26.25 13.75 26.25H10C9.00544 26.25 8.05161 25.8549 7.34835 25.1517C6.64509 24.4484 6.25 23.4946 6.25 22.5V20C6.25 19.6685 6.3817 19.3505 6.61612 19.1161C6.85054 18.8817 7.16848 18.75 7.5 18.75C7.83152 18.75 8.14946 18.8817 8.38388 19.1161C8.6183 19.3505 8.75 19.6685 8.75 20V22.5C8.75 22.8315 8.8817 23.1495 9.11612 23.3839C9.35054 23.6183 9.66848 23.75 10 23.75H13.75C14.0815 23.75 14.3995 23.8817 14.6339 24.1161C14.8683 24.3505 15 24.6685 15 25ZM25 25C25 25.2472 24.9267 25.4889 24.7893 25.6945C24.652 25.9 24.4568 26.0602 24.2284 26.1549C23.9999 26.2495 23.7486 26.2742 23.5061 26.226C23.2637 26.1777 23.0409 26.0587 22.8661 25.8839C22.6913 25.7091 22.5723 25.4863 22.524 25.2439C22.4758 25.0014 22.5005 24.7501 22.5951 24.5216C22.6898 24.2932 22.85 24.098 23.0555 23.9607C23.2611 23.8233 23.5028 23.75 23.75 23.75C24.0815 23.75 24.3995 23.8817 24.6339 24.1161C24.8683 24.3505 25 24.6685 25 25Z" fill="#E95C40"/>
</g>
<defs>
<clipPath id="clip0_1_125397">
<rect width="30" height="30" fill="white"/>
</clipPath>
</defs>
</svg>
