<svg width="1400" height="410" viewBox="0 0 1400 410" fill="none" xmlns="http://www.w3.org/2000/svg">
<g clip-path="url(#clip0_1_3)">
<path d="M40 0H1360C1382.09 0 1400 17.9086 1400 40V370C1400 392.091 1382.09 410 1360 410H40C17.9086 410 0 392.091 0 370V40C0 17.9086 17.9086 0 40 0Z" fill="url(#paint0_linear_1_3)"/>
<path d="M862 341C862 291.294 902.294 251 952 251H1400V370C1400 392.091 1382.09 410 1360 410H862V341Z" fill="#FFF7E1"/>
<path d="M713.5 133C692.789 133 676 116.211 676 95.5C676 74.7893 692.789 58 713.5 58C734.211 58 751 74.7893 751 95.5C751 116.211 734.211 133 713.5 133Z" fill="white"/>
<path d="M128 347C115.297 347 105 336.703 105 324C105 311.297 115.297 301 128 301C140.703 301 151 311.297 151 324C151 336.703 140.703 347 128 347Z" fill="white"/>
<path d="M1247 121C1240.92 121 1236 116.075 1236 110C1236 103.925 1240.92 99 1247 99C1253.08 99 1258 103.925 1258 110C1258 116.075 1253.08 121 1247 121Z" fill="white"/>
<path d="M1306.5 88C1296.84 88 1289 80.165 1289 70.5C1289 60.835 1296.84 53 1306.5 53C1316.16 53 1324 60.835 1324 70.5C1324 80.165 1316.16 88 1306.5 88Z" fill="#E95C40"/>
</g>
<defs>
<linearGradient id="paint0_linear_1_3" x1="-188.5" y1="31" x2="1386.5" y2="395" gradientUnits="userSpaceOnUse">
<stop stop-color="#FFCDD2"/>
<stop offset="1" stop-color="#FFE3D3"/>
</linearGradient>
<clipPath id="clip0_1_3">
<rect width="1400" height="410" fill="white"/>
</clipPath>
</defs>
</svg>
