<svg width="20" height="20" viewBox="0 0 20 20" fill="none" xmlns="http://www.w3.org/2000/svg">
<g id="exchange 1" clip-path="url(#clip0_217_10861)">
<g id="Group">
<path id="Vector" d="M19.1671 13.3339H2.23463L2.2463 13.3214L4.1163 11.4172C4.19812 11.3404 4.26357 11.2478 4.30871 11.145C4.35385 11.0422 4.37775 10.9313 4.37899 10.8191C4.38022 10.7068 4.35876 10.5954 4.31589 10.4917C4.27302 10.3879 4.20963 10.2939 4.12952 10.2152C4.0494 10.1366 3.95422 10.0749 3.84969 10.034C3.74516 9.99303 3.63343 9.97362 3.52121 9.97692C3.40899 9.98022 3.2986 10.0062 3.19665 10.0532C3.09471 10.1002 3.00331 10.1674 2.92796 10.2506L1.06213 12.1481C0.926296 12.2839 0.736296 12.4922 0.542129 12.7114C0.193447 13.1057 0.000976563 13.6138 0.000976562 14.1402C0.000976562 14.6665 0.193447 15.1746 0.542129 15.5689C0.736296 15.7872 0.926296 15.9956 1.05713 16.1272L2.92796 18.0306C3.08479 18.1779 3.29254 18.2589 3.50772 18.2565C3.72289 18.2541 3.92881 18.1686 4.08236 18.0179C4.23591 17.8671 4.3252 17.6628 4.33152 17.4477C4.33785 17.2326 4.26073 17.0234 4.1163 16.8639L2.28713 15.0006H19.1671C19.3881 15.0006 19.6001 14.9128 19.7564 14.7565C19.9127 14.6002 20.0005 14.3883 20.0005 14.1672C20.0005 13.9462 19.9127 13.7343 19.7564 13.578C19.6001 13.4217 19.3881 13.3339 19.1671 13.3339Z" fill="#8D000E"/>
<path id="Vector_2" d="M0.833333 6.66739H17.7125L15.8842 8.52822C15.8023 8.60509 15.7369 8.69771 15.6918 8.8005C15.6466 8.90329 15.6227 9.01415 15.6215 9.12641C15.6202 9.23867 15.6417 9.35002 15.6846 9.45378C15.7274 9.55754 15.7908 9.65157 15.8709 9.73022C15.9511 9.80888 16.0462 9.87053 16.1508 9.91148C16.2553 9.95244 16.367 9.97185 16.4792 9.96855C16.5915 9.96525 16.7019 9.93931 16.8038 9.89228C16.9058 9.84525 16.9971 9.77812 17.0725 9.69489L18.9383 7.79572C19.0742 7.65989 19.2642 7.45156 19.4583 7.23322C19.807 6.83896 19.9995 6.3308 19.9995 5.80447C19.9995 5.27815 19.807 4.76999 19.4583 4.37572C19.2642 4.15656 19.0742 3.94822 18.9433 3.81739L17.0725 1.91739C16.9157 1.77005 16.7079 1.68909 16.4927 1.69146C16.2776 1.69382 16.0717 1.77933 15.9181 1.93009C15.7645 2.08084 15.6753 2.28515 15.6689 2.50024C15.6626 2.71534 15.7397 2.92454 15.8842 3.08406L17.76 4.99239L17.7667 5.00072H0.833333C0.61232 5.00072 0.400358 5.08852 0.244078 5.2448C0.0877974 5.40108 0 5.61304 0 5.83406C0 6.05507 0.0877974 6.26703 0.244078 6.42331C0.400358 6.57959 0.61232 6.66739 0.833333 6.66739Z" fill="#8D000E"/>
</g>
</g>
<defs>
<clipPath id="clip0_217_10861">
<rect width="20" height="20" fill="white"/>
</clipPath>
</defs>
</svg>
