<svg width="75" height="75" viewBox="0 0 75 75" fill="none" xmlns="http://www.w3.org/2000/svg">
<g id="search">
<path id="Vector" d="M51.4243 61.5636C46.4606 64.703 40.5636 66.4849 34.2849 66.4849C16.4242 66.5273 1.99998 52.0606 1.99998 34.2424C1.99998 16.4242 16.4242 2 34.2424 2C52.0606 2 66.4849 16.4242 66.4849 34.2424C66.4849 40.4788 64.7031 46.3333 61.6485 51.2545" stroke="#E95C40" stroke-width="3" stroke-linecap="round" stroke-linejoin="round"/>
<path id="Vector_2" opacity="0.1" d="M35 58C48.2548 58 59 47.2548 59 34C59 20.7452 48.2548 10 35 10C21.7451 10 11 20.7452 11 34C11 47.2548 21.7451 58 35 58Z" fill="#E95C40"/>
<path id="Vector_3" d="M49.4303 49.4297L72 71.9994" stroke="#E95C40" stroke-width="6" stroke-miterlimit="10" stroke-linecap="round"/>
</g>
</svg>
