<svg width="110" height="130" viewBox="0 0 11 13" fill="none" xmlns="http://www.w3.org/2000/svg">
<g id="_01_align_center">
<path id="Vector" d="M5.4772 13.0052L5.09961 12.6815C4.57908 12.2457 0.0339813 8.32035 0.0339813 5.44908C0.0339813 2.44288 2.471 0.00585938 5.4772 0.00585938C8.4834 0.00585938 10.9204 2.44288 10.9204 5.44908C10.9204 8.32037 6.37531 12.2457 5.85694 12.6837L5.4772 13.0052ZM5.4772 1.18284C3.12214 1.18551 1.21366 3.09399 1.21099 5.44905C1.21099 7.25285 4.00731 10.1344 5.4772 11.4532C6.94711 10.1339 9.74341 7.25067 9.74341 5.44905C9.74074 3.09399 7.83228 1.18553 5.4772 1.18284Z" fill="#404040"/>
<path id="Vector_2" d="M5.47725 7.6063C4.28562 7.6063 3.31961 6.64029 3.31961 5.44866C3.31961 4.25703 4.28562 3.29102 5.47725 3.29102C6.66889 3.29102 7.6349 4.25703 7.6349 5.44866C7.6349 6.64029 6.66891 7.6063 5.47725 7.6063ZM5.47725 4.36981C4.88144 4.36981 4.39843 4.85282 4.39843 5.44863C4.39843 6.04445 4.88144 6.52746 5.47725 6.52746C6.07307 6.52746 6.55608 6.04445 6.55608 5.44863C6.55608 4.85282 6.0731 4.36981 5.47725 4.36981Z" fill="#404040"/>
</g>
</svg>
