<svg width="15" height="15" viewBox="0 0 15 15" fill="none" xmlns="http://www.w3.org/2000/svg">
<g id="star (1) 1" clip-path="url(#clip0_217_10870)">
<path id="Vector" d="M14.9608 5.7536C14.862 5.44987 14.5926 5.23483 14.2751 5.20611L9.94508 4.813L8.23381 0.806587C8.10747 0.51224 7.81999 0.322266 7.5 0.322266C7.18002 0.322266 6.89243 0.51224 6.76688 0.806587L5.05562 4.813L0.724875 5.20611C0.40741 5.2354 0.138584 5.45044 0.0392477 5.7536C-0.0595165 6.05733 0.0316945 6.39047 0.271796 6.60105L3.54497 9.47116L2.57988 13.7218C2.50927 14.0343 2.63058 14.3575 2.8899 14.545C3.0293 14.6463 3.19306 14.6968 3.3574 14.6968C3.49863 14.6968 3.63996 14.6593 3.76619 14.5838L7.5 12.3512L11.2331 14.5838C11.507 14.7474 11.8513 14.7324 12.1101 14.545C12.3694 14.3575 12.4907 14.0343 12.4201 13.7218L11.455 9.47116L14.7282 6.60105C14.9682 6.39047 15.0595 6.05802 14.9608 5.7536Z" fill="#FFCB35"/>
</g>
<defs>
<clipPath id="clip0_217_10870">
<rect width="15" height="15" fill="white"/>
</clipPath>
</defs>
</svg>
