<svg width="150" height="130" viewBox="0 0 15 13" fill="none" xmlns="http://www.w3.org/2000/svg">
<path id="Vector" d="M13.0201 2.51013L8.66739 0.436475C7.70925 -0.135838 6.5167 -0.145993 5.54894 0.409913L1.14724 2.51013C1.13072 2.5184 1.11359 2.52726 1.09766 2.53669C0.0530812 3.13396 -0.309554 4.46494 0.287717 5.50952C0.490174 5.86363 0.78798 6.15377 1.14724 6.34696L2.36145 6.92544V9.81781C2.36217 11.1112 3.20374 12.2538 4.43865 12.6382C5.29803 12.8868 6.18913 13.0085 7.0837 12.9994C7.97814 13.0094 8.86924 12.8887 9.72876 12.6411C10.9637 12.2568 11.8052 11.1141 11.806 9.82077V6.92425L12.9865 6.35994V11.2286C12.9865 11.5546 13.2508 11.8188 13.5768 11.8188C13.9028 11.8188 14.1671 11.5546 14.1671 11.2286V4.1452C14.171 3.45205 13.6237 2.81173 13.0201 2.51013ZM10.6254 9.82077C10.6257 10.5944 10.1237 11.2787 9.38577 11.5107C8.63742 11.7246 7.86193 11.8283 7.08368 11.8189C6.30542 11.8283 5.52993 11.7246 4.78158 11.5107C4.04361 11.2786 3.54169 10.5944 3.542 9.82077V7.48799L5.49996 8.42064C5.98307 8.70752 6.53483 8.85826 7.09668 8.85685C7.63147 8.86064 8.15728 8.71905 8.61783 8.4472L10.6254 7.48796V9.82077ZM12.5143 5.28149L8.06237 7.4065C7.44164 7.76795 6.67223 7.75771 6.06132 7.37994L1.70563 5.30806C1.22012 5.04625 1.03878 4.44043 1.30058 3.95494C1.38912 3.79075 1.52188 3.65465 1.6838 3.56201L6.10794 1.44881C6.72887 1.08817 7.49786 1.09838 8.10899 1.47538L12.4617 3.54903C12.7818 3.72678 12.9821 4.06244 12.9865 4.42856C12.987 4.77537 12.8085 5.09788 12.5143 5.28149Z" fill="#404040"/>
</svg>
