<svg width="130" height="130" viewBox="0 0 13 13" fill="none" xmlns="http://www.w3.org/2000/svg">
<g id="fi-rs-diploma" clip-path="url(#clip0_217_10843)">
<path id="Vector" d="M3.79167 6.5H6.5V7.58333H3.79167V6.5ZM9.20833 4.33333H3.79167V5.41667H9.20833V4.33333ZM9.20833 2.16667H3.79167V3.25H9.20833V2.16667ZM10.8333 10.5322V13L9.75 11.9167L8.66667 13V10.5322C8.25356 10.2948 7.93054 9.92753 7.7479 9.48749C7.56527 9.04745 7.53327 8.55937 7.65689 8.09925C7.78051 7.63914 8.05281 7.23281 8.43139 6.94356C8.80997 6.6543 9.27357 6.49836 9.75 6.5C9.93311 6.50229 10.1152 6.52814 10.2917 6.57692V1.625C10.2917 1.48134 10.2346 1.34357 10.133 1.24198C10.0314 1.1404 9.89366 1.08333 9.75 1.08333H3.25C3.10634 1.08333 2.96857 1.1404 2.86698 1.24198C2.7654 1.34357 2.70833 1.48134 2.70833 1.625V10.8333H7.58333V11.9167H1.625V1.625C1.625 1.19402 1.7962 0.780698 2.10095 0.475951C2.4057 0.171205 2.81902 0 3.25 0L9.75 0C10.181 0 10.5943 0.171205 10.899 0.475951C11.2038 0.780698 11.375 1.19402 11.375 1.625V7.24858C11.5872 7.48686 11.7434 7.76957 11.8322 8.07603C11.921 8.38248 11.9401 8.70491 11.8882 9.01971C11.8362 9.33451 11.7146 9.63371 11.532 9.8954C11.3495 10.1571 11.1108 10.3747 10.8333 10.5322ZM10.8333 8.66667C10.8333 8.4524 10.7698 8.24295 10.6508 8.0648C10.5317 7.88665 10.3625 7.74779 10.1646 7.6658C9.96662 7.5838 9.7488 7.56235 9.53865 7.60415C9.32851 7.64595 9.13547 7.74913 8.98397 7.90063C8.83246 8.05214 8.72928 8.24517 8.68748 8.45532C8.64568 8.66547 8.66713 8.88329 8.74913 9.08124C8.83112 9.27919 8.96998 9.44839 9.14813 9.56743C9.32628 9.68646 9.53574 9.75 9.75 9.75C10.0373 9.75 10.3129 9.63586 10.516 9.4327C10.7192 9.22954 10.8333 8.95399 10.8333 8.66667Z" fill="#404040"/>
</g>
<defs>
<clipPath id="clip0_217_10843">
<rect width="13" height="13" fill="white"/>
</clipPath>
</defs>
</svg>
