<svg width="74" height="74" viewBox="0 0 74 74" fill="none" xmlns="http://www.w3.org/2000/svg">
<path opacity="0.1" d="M36.9999 63.0409C51.3814 63.0409 63.0399 51.3824 63.0399 37.0009C63.0399 22.6194 51.3814 10.9609 36.9999 10.9609C22.6184 10.9609 10.9599 22.6194 10.9599 37.0009C10.9599 51.3824 22.6184 63.0409 36.9999 63.0409Z" fill="#E95C40"/>
<path d="M37 72C56.33 72 72 56.33 72 37C72 17.67 56.33 2 37 2C17.67 2 2 17.67 2 37C2 56.33 17.67 72 37 72Z" stroke="#E95C40" stroke-width="3" stroke-linecap="round" stroke-linejoin="round"/>
<path d="M34.6549 50.0195C30.5599 49.3545 28.4599 46.7995 28.4599 43.0895V41.1645H33.8499V43.4045C33.8499 45.2245 35.0049 45.9595 36.8249 45.9595C38.6449 45.9595 39.7999 45.2245 39.7999 43.3345C39.7999 41.2345 38.7499 39.7295 34.8999 37.2795C30.2099 34.3045 28.5999 31.9595 28.5999 28.7395C28.5999 25.1695 30.6299 22.6495 34.6199 21.9495V19.3945H39.3099V21.9495C43.3699 22.6145 45.4349 25.1345 45.4349 28.8445V29.6845H40.0449V28.5645C40.0449 26.7445 38.9949 25.9745 37.1749 25.9745C35.3549 25.9745 34.3049 26.7795 34.3049 28.4945C34.3049 30.4195 35.3549 31.8895 39.2049 34.3745C43.8949 37.3845 45.5049 39.6945 45.5049 43.0545C45.5049 46.8345 43.3699 49.3895 39.3099 50.0545V52.9945H34.6199V50.0545L34.6549 50.0195Z" fill="#E95C40"/>
</svg>
