<svg width="20" height="21" viewBox="0 0 20 21" fill="none" xmlns="http://www.w3.org/2000/svg">
<path id="Vector" d="M16.6831 20.387C16.3758 20.3861 16.0717 20.3236 15.7884 20.203C15.5051 20.0825 15.2482 19.9062 15.0326 19.6845L9.92383 14.5407L4.8151 19.6879C4.487 20.025 4.06623 20.2542 3.60763 20.3456C3.14903 20.437 2.67388 20.3863 2.24412 20.2002C1.8101 20.0234 1.43881 19.7182 1.17873 19.3243C0.918653 18.9305 0.781878 18.4664 0.786266 17.9926V4.40192C0.786266 3.28625 1.22386 2.21629 2.00278 1.4274C2.7817 0.638507 3.83814 0.195313 4.9397 0.195313L14.908 0.195312C15.4534 0.195312 15.9935 0.304119 16.4974 0.515521C17.0013 0.726923 17.4592 1.03678 17.8449 1.4274C18.2306 1.81802 18.5365 2.28175 18.7452 2.79212C18.954 3.30249 19.0614 3.8495 19.0614 4.40192V17.9926C19.0661 18.466 18.9298 18.9298 18.6703 19.3236C18.4109 19.7174 18.0403 20.0229 17.6069 20.2002C17.3143 20.3242 17.0003 20.3877 16.6831 20.387ZM4.9397 1.87795C4.27877 1.87795 3.6449 2.14387 3.17755 2.6172C2.7102 3.09054 2.44764 3.73252 2.44764 4.40192V17.9926C2.44734 18.1328 2.48807 18.2699 2.56469 18.3867C2.6413 18.5035 2.75036 18.5946 2.8781 18.6486C3.00583 18.7026 3.1465 18.7171 3.28235 18.6902C3.4182 18.6633 3.54312 18.5962 3.64134 18.4974L9.34235 12.7588C9.49799 12.6021 9.70853 12.5141 9.92799 12.5141C10.1474 12.5141 10.358 12.6021 10.5136 12.7588L16.208 18.4957C16.3062 18.5945 16.4311 18.6616 16.567 18.6885C16.7028 18.7154 16.8435 18.701 16.9712 18.6469C17.099 18.5929 17.208 18.5018 17.2846 18.385C17.3613 18.2683 17.402 18.1311 17.4017 17.9909V4.40192C17.4017 3.73252 17.1391 3.09054 16.6718 2.6172C16.2044 2.14387 15.5706 1.87795 14.9096 1.87795H4.9397Z" fill="#8D000E"/>
</svg>
